<?xml version="1.0" encoding="UTF-8" standalone="no"?>
<!-- Generator: Gravit.io -->
<svg xmlns="http://www.w3.org/2000/svg" xmlns:xlink="http://www.w3.org/1999/xlink" style="isolation:isolate" viewBox="-119.38638762678409 2691.796117306897 1621.0615448161911 512.405342145119"><linearGradient id="_lgradient_17" x1="43.7029787888434%" y1="36.41023135765309%" x2="36.402869779922625%" y2="98.45300178718999%"><stop offset="2.272727272727273%" style="stop-color:rgb(216,228,252)"/><stop offset="99.54545454545455%" style="stop-color:rgb(255,255,255)"/><stop offset="99.54545454545455%" style="stop-color:rgb(190,211,255)"/><stop offset="100%" style="stop-color:rgb(0,0,0)"/></linearGradient><path d=" M 557.9054218015876 3122.722675417249 Q 95.18366394875738 3227.225889812312 -37.048737609010914 3037.312623723903 Q 231.34763585229302 2960.4730556365926 217.0492256645325 2966.0341228263082 L 324.4117374676616 3058.048883544063 L 557.9054218015876 3122.722675417249 Z " fill="url(#_lgradient_17)" stroke-width="1" stroke="rgba(0,0,0,0)"/><linearGradient id="_lgradient_18" x1="0%" y1="50%" x2="100%" y2="50%"><stop offset="0%" style="stop-color:rgb(226,235,253)"/><stop offset="100%" style="stop-color:rgb(167,186,228)"/></linearGradient><path d=" M 215.69020277669506 2965.8978839578554 Q 518.4002189994512 2855.101201754327 400.13722156562244 2698.4338831334867 Q 591.0078640414279 2926.305180485445 320.38124503889776 3057.4832971524224 L 215.69020277669506 2965.8978839578554 Z " fill="url(#_lgradient_18)" stroke-width="1" stroke="rgba(0,0,0,0)"/><linearGradient id="_lgradient_19" x1="99.32005314129367%" y1="47.769842344643244%" x2="-8.026400087250508%" y2="41.11738342951665%"><stop offset="0%" style="stop-color:rgb(205,220,252)"/><stop offset="96.36363636363636%" style="stop-color:rgb(255,255,255)"/><stop offset="100%" style="stop-color:rgb(0,0,0)"/></linearGradient><path d=" M -39.41804807100516 3034.7960007250635 Q 361.97128781468314 2902.820247676794 398.1422442746309 2696.276577883734 Q 530.205471449997 2861.4926930388147 217.22847489115748 2965.9473393395183 L -39.41804807100516 3034.7960007250635 Z " fill="url(#_lgradient_19)" stroke-width="1" stroke="rgba(0,0,0,0)"/><linearGradient id="_lgradient_20" x1="0%" y1="50%" x2="100%" y2="50%"><stop offset="0%" style="stop-color:rgb(178,195,232)"/><stop offset="100%" style="stop-color:rgb(244,247,254)"/></linearGradient><path d=" M 799.183147459727 2714.237227181866 Q 691.9346359493431 2964.0736228449214 609.7297535453667 3000.3613780877167 Q 554.6560925237504 3024.672580452266 785.9654688145392 3028.4127654314275 L 799.183147459727 2714.237227181866 Z " fill="url(#_lgradient_20)" stroke-width="1" stroke="rgba(0,0,0,0)"/><linearGradient id="_lgradient_21" x1="0%" y1="50%" x2="100%" y2="50%"><stop offset="0%" style="stop-color:rgb(226,235,253)"/><stop offset="100%" style="stop-color:rgb(167,186,228)"/></linearGradient><path d=" M 792.8612540007321 2904.2336307290543 Q 619.7106597975485 2947.975852677113 399.99316317864213 2698.6030778347263 Q 577.4833761052964 2930.899967412551 321.7522298024587 3054.857951548548 C 579.304556515468 3070.2386470581923 736.3408979148921 3020.0305401183614 792.8612540007321 2904.2336307290543 Z " fill="url(#_lgradient_21)" stroke-width="1" stroke="rgba(0,0,0,0)"/><linearGradient id="_lgradient_22" x1="31.295095000730157%" y1="66.87682246516218%" x2="90.0409381977815%" y2="4.462878000295268%"><stop offset="2.272727272727273%" style="stop-color:rgb(216,228,252)"/><stop offset="99.54545454545455%" style="stop-color:rgb(255,255,255)"/><stop offset="99.54545454545455%" style="stop-color:rgb(190,211,255)"/><stop offset="99.54545454545455%" style="stop-color:rgb(0,0,0)"/><stop offset="100%" style="stop-color:rgb(0,0,0)"/></linearGradient><path d=" M 790.4167703286375 2904.206328539473 L 970.9205740892749 3124.6538920506537 Q 854.0010935196115 3223.6652852401 555.4609381294927 3122.695373227672 M 790.4167703286375 2904.206328539473 C 733.8964142428013 3020.0032379287823 576.8600728433767 3070.2113448686137 319.307746130361 3054.83064935897 L 321.9672537955712 3058.0215813544896 C 402.17901968496426 3081.040158615029 480.01024779627187 3102.5980892394227 555.4609381294927 3122.695373227672" fill-rule="evenodd" fill="url(#_lgradient_22)" stroke-width="1" stroke="rgba(0,0,0,0)"/><linearGradient id="_lgradient_23" x1="-13.0874479476502%" y1="66.78832116788315%" x2="125.1487209994052%" y2="62.40875912408757%"><stop offset="2.272727272727273%" style="stop-color:rgb(200,218,253)"/><stop offset="99.54545454545455%" style="stop-color:rgb(255,255,255)"/><stop offset="99.54545454545455%" style="stop-color:rgb(190,211,255)"/><stop offset="99.54545454545455%" style="stop-color:rgb(0,0,0)"/><stop offset="100%" style="stop-color:rgb(0,0,0)"/></linearGradient><path d=" M 772.7477901693512 3204.201459452016 Q 1134.0310064711548 3045.2435978376534 1010.6660057827341 2933.0380484628104 Q 805.7919867823211 2970.4398982544253 796.9802010188625 2691.796117306897 L 772.7477901693512 3204.201459452016 Z " fill="url(#_lgradient_23)" stroke-width="1" stroke="rgba(0,0,0,0)"/><linearGradient id="_lgradient_24" x1="26.332288401253944%" y1="53.76606807568223%" x2="98.43260188087774%" y2="53.76606807568223%"><stop offset="0%" style="stop-color:rgb(179,196,233)"/><stop offset="96.36363636363636%" style="stop-color:rgb(255,255,255)"/></linearGradient><path d=" M 916.0585616595527 2971.382302996925 C 1200.3523772875278 3105.1542486152152 1334.6183854238375 2951.1886272889988 1185.9195006654732 2714.3718848960484 Q 1408.0499334526592 2861.234980953692 1501.6751571894072 3035.6349075221437 Q 1345.6331176281608 3316.510578732388 916.0585616595527 2971.382302996925 Z " fill="url(#_lgradient_24)" stroke-width="1" stroke="rgba(0,0,0,0)"/><linearGradient id="_lgradient_25" x1="0%" y1="50%" x2="100%" y2="50%"><stop offset="0%" style="stop-color:rgb(179,196,233)"/><stop offset="96.36363636363636%" style="stop-color:rgb(255,255,255)"/></linearGradient><path d=" M 1192.2479232640305 2717.0287300931664 C 1340.9468080223965 2953.8454724861163 1206.6807998860868 3107.8110938123327 922.3869842581105 2974.039148194046 C 1275.87314700078 2982.397035201248 1086.7869108265636 2642.776125567947 1192.2479232640305 2717.0287300931664 Z " fill="url(#_lgradient_25)" stroke-width="1" stroke="rgba(0,0,0,0)"/><linearGradient id="_lgradient_26" x1="26.332288401253944%" y1="53.76606807568223%" x2="98.43260188087774%" y2="53.76606807568223%"><stop offset="0%" style="stop-color:rgb(179,196,233)"/><stop offset="96.36363636363636%" style="stop-color:rgb(255,255,255)"/></linearGradient><path d=" M 256.42296571664576 3013.1047317453763 C 73.98231115490364 3146.8766773636667 63.18719822245009 3090.354949745284 158.61214374225517 2853.5382073523338 Q -59.30401452172157 2902.957409702143 -119.38638762678409 3077.357336270595 Q -19.24909911834675 3358.233007480839 256.42296571664576 3013.1047317453763 Z " fill="url(#_lgradient_26)" stroke-width="1" stroke="rgba(0,0,0,0)"/><linearGradient id="_lgradient_27" x1="0%" y1="50%" x2="100%" y2="50%"><stop offset="0%" style="stop-color:rgb(179,196,233)"/><stop offset="96.36363636363636%" style="stop-color:rgb(255,255,255)"/></linearGradient><path d=" M 148.03800082610496 2866.755885997521 C 52.61305530629886 3103.572628390471 69.92115506301298 3149.533522560784 252.36180962475578 3015.7615769424974 C 25.51815927366067 3024.1194639496994 215.7157872645314 2792.5032814723018 148.03800082610496 2866.755885997521 Z " fill="url(#_lgradient_27)" stroke-width="1" stroke="rgba(0,0,0,0)"/></svg>