<?xml version="1.0" encoding="UTF-8" standalone="no"?>
<!-- Generator: Gravit.io -->
<svg xmlns="http://www.w3.org/2000/svg" xmlns:xlink="http://www.w3.org/1999/xlink" style="isolation:isolate" viewBox="-119.38638762678409 2687.989425857083 1621.0615448161911 512.405342145119"><linearGradient id="_lgradient_6" x1="43.7029787888434%" y1="36.41023135765309%" x2="36.402869779922625%" y2="98.45300178718999%"><stop offset="2.272727272727273%" style="stop-color:rgb(216,228,252)"/><stop offset="99.54545454545455%" style="stop-color:rgb(255,255,255)"/><stop offset="99.54545454545455%" style="stop-color:rgb(190,211,255)"/><stop offset="100%" style="stop-color:rgb(0,0,0)"/></linearGradient><path d=" M 557.9054218015876 3118.915983967434 Q 95.18366394875738 3223.419198362498 -37.048737609010914 3033.5059322740885 Q 231.34763585229302 2956.666364186778 217.0492256645325 2962.2274313764938 L 324.4117374676616 3054.2421920942484 L 557.9054218015876 3118.915983967434 Z " fill="url(#_lgradient_6)" stroke-width="1" stroke="rgba(0,0,0,0)"/><linearGradient id="_lgradient_7" x1="0%" y1="50%" x2="100%" y2="50%"><stop offset="0%" style="stop-color:rgb(226,235,253)"/><stop offset="100%" style="stop-color:rgb(167,186,228)"/></linearGradient><path d=" M 215.69020277669506 2962.091192508041 Q 518.4002189994512 2851.2945103045126 400.13722156562244 2694.627191683672 Q 591.0078640414279 2922.4984890356304 320.38124503889776 3053.676605702608 L 215.69020277669506 2962.091192508041 Z " fill="url(#_lgradient_7)" stroke-width="1" stroke="rgba(0,0,0,0)"/><linearGradient id="_lgradient_8" x1="99.32005314129367%" y1="47.769842344643244%" x2="-8.026400087250508%" y2="41.11738342951665%"><stop offset="0%" style="stop-color:rgb(205,220,252)"/><stop offset="96.36363636363636%" style="stop-color:rgb(255,255,255)"/><stop offset="100%" style="stop-color:rgb(0,0,0)"/></linearGradient><path d=" M -39.41804807100516 3030.989309275249 Q 361.97128781468314 2899.0135562269797 398.1422442746309 2692.4698864339193 Q 530.205471449997 2857.6860015890006 217.22847489115748 2962.140647889704 L -39.41804807100516 3030.989309275249 Z " fill="url(#_lgradient_8)" stroke-width="1" stroke="rgba(0,0,0,0)"/><linearGradient id="_lgradient_9" x1="0%" y1="50%" x2="100%" y2="50%"><stop offset="0%" style="stop-color:rgb(178,195,232)"/><stop offset="100%" style="stop-color:rgb(244,247,254)"/></linearGradient><path d=" M 799.183147459727 2710.4305357320513 Q 691.9346359493431 2960.266931395107 609.7297535453667 2996.5546866379023 Q 554.6560925237504 3020.8658890024517 785.9654688145392 3024.606073981613 L 799.183147459727 2710.4305357320513 Z " fill="url(#_lgradient_9)" stroke-width="1" stroke="rgba(0,0,0,0)"/><linearGradient id="_lgradient_10" x1="0%" y1="50%" x2="100%" y2="50%"><stop offset="0%" style="stop-color:rgb(226,235,253)"/><stop offset="100%" style="stop-color:rgb(167,186,228)"/></linearGradient><path d=" M 792.8612540007321 2900.42693927924 Q 619.7106597975485 2944.169161227299 399.99316317864213 2694.796386384912 Q 577.4833761052964 2927.0932759627367 321.7522298024587 3051.0512600987336 C 579.304556515468 3066.4319556083783 736.3408979148921 3016.2238486685465 792.8612540007321 2900.42693927924 Z " fill="url(#_lgradient_10)" stroke-width="1" stroke="rgba(0,0,0,0)"/><linearGradient id="_lgradient_11" x1="31.295095000730157%" y1="66.87682246516218%" x2="90.0409381977815%" y2="4.462878000295268%"><stop offset="2.272727272727273%" style="stop-color:rgb(216,228,252)"/><stop offset="99.54545454545455%" style="stop-color:rgb(255,255,255)"/><stop offset="99.54545454545455%" style="stop-color:rgb(190,211,255)"/><stop offset="99.54545454545455%" style="stop-color:rgb(0,0,0)"/><stop offset="100%" style="stop-color:rgb(0,0,0)"/></linearGradient><path d=" M 790.4167703286375 2900.3996370896584 L 970.9205740892749 3120.847200600839 Q 854.0010935196115 3219.8585937902853 555.4609381294927 3118.8886817778575 M 790.4167703286375 2900.3996370896584 C 733.8964142428013 3016.1965464789682 576.8600728433767 3066.404653418799 319.307746130361 3051.0239579091553 L 321.9672537955712 3054.214889904675 C 402.17901968496426 3077.2334671652143 480.01024779627187 3098.7913977896087 555.4609381294927 3118.8886817778575" fill-rule="evenodd" fill="url(#_lgradient_11)" stroke-width="1" stroke="rgba(0,0,0,0)"/><linearGradient id="_lgradient_12" x1="-13.0874479476502%" y1="66.78832116788315%" x2="125.1487209994052%" y2="62.40875912408757%"><stop offset="2.272727272727273%" style="stop-color:rgb(200,218,253)"/><stop offset="99.54545454545455%" style="stop-color:rgb(255,255,255)"/><stop offset="99.54545454545455%" style="stop-color:rgb(190,211,255)"/><stop offset="99.54545454545455%" style="stop-color:rgb(0,0,0)"/><stop offset="100%" style="stop-color:rgb(0,0,0)"/></linearGradient><path d=" M 772.7477901693512 3200.394768002202 Q 1134.0310064711548 3041.4369063878394 1010.6660057827341 2929.2313570129963 Q 805.7919867823211 2966.6332068046113 796.9802010188625 2687.989425857083 L 772.7477901693512 3200.394768002202 Z " fill="url(#_lgradient_12)" stroke-width="1" stroke="rgba(0,0,0,0)"/><linearGradient id="_lgradient_13" x1="26.332288401253944%" y1="53.76606807568223%" x2="98.43260188087774%" y2="53.76606807568223%"><stop offset="0%" style="stop-color:rgb(179,196,233)"/><stop offset="96.36363636363636%" style="stop-color:rgb(255,255,255)"/></linearGradient><path d=" M 916.0585616595527 2967.5756115471104 C 1200.3523772875278 3101.3475571654008 1334.6183854238375 2947.3819358391843 1185.9195006654732 2710.565193446234 Q 1408.0499334526592 2857.4282895038773 1501.6751571894072 3031.8282160723293 Q 1345.6331176281608 3312.7038872825733 916.0585616595527 2967.5756115471104 Z " fill="url(#_lgradient_13)" stroke-width="1" stroke="rgba(0,0,0,0)"/><linearGradient id="_lgradient_14" x1="0%" y1="50%" x2="100%" y2="50%"><stop offset="0%" style="stop-color:rgb(179,196,233)"/><stop offset="96.36363636363636%" style="stop-color:rgb(255,255,255)"/></linearGradient><path d=" M 1192.2479232640305 2713.222038643352 C 1340.9468080223965 2950.0387810363018 1206.6807998860868 3104.0044023625182 922.3869842581105 2970.2324567442315 C 1275.87314700078 2978.5903437514335 1086.7869108265636 2638.9694341181325 1192.2479232640305 2713.222038643352 Z " fill="url(#_lgradient_14)" stroke-width="1" stroke="rgba(0,0,0,0)"/><linearGradient id="_lgradient_15" x1="26.332288401253944%" y1="53.76606807568223%" x2="98.43260188087774%" y2="53.76606807568223%"><stop offset="0%" style="stop-color:rgb(179,196,233)"/><stop offset="96.36363636363636%" style="stop-color:rgb(255,255,255)"/></linearGradient><path d=" M 256.42296571664576 3009.298040295562 C 73.98231115490364 3143.069985913852 63.18719822245009 3086.5482582954696 158.61214374225517 2849.7315159025193 Q -59.30401452172157 2899.1507182523287 -119.38638762678409 3073.5506448207807 Q -19.24909911834675 3354.4263160310247 256.42296571664576 3009.298040295562 Z " fill="url(#_lgradient_15)" stroke-width="1" stroke="rgba(0,0,0,0)"/><linearGradient id="_lgradient_16" x1="0%" y1="50%" x2="100%" y2="50%"><stop offset="0%" style="stop-color:rgb(179,196,233)"/><stop offset="96.36363636363636%" style="stop-color:rgb(255,255,255)"/></linearGradient><path d=" M 148.03800082610496 2862.9491945477066 C 52.61305530629886 3099.7659369406565 69.92115506301298 3145.7268311109697 252.36180962475578 3011.954885492683 C 25.51815927366067 3020.312772499885 215.7157872645314 2788.6965900224873 148.03800082610496 2862.9491945477066 Z " fill="url(#_lgradient_16)" stroke-width="1" stroke="rgba(0,0,0,0)"/></svg>