<?xml version="1.0" encoding="UTF-8" standalone="no"?>
<!-- Generator: Gravit.io -->
<svg xmlns="http://www.w3.org/2000/svg" xmlns:xlink="http://www.w3.org/1999/xlink" style="isolation:isolate" viewBox="78.07778555592733 107.5472758803059 364.9697286371342 269.8770628055058"><linearGradient id="_lgradient_0" x1="0%" y1="50%" x2="30.278162026285838%" y2="-45.305996161364284%"><stop offset="0%" style="stop-color:rgb(238,152,21)"/><stop offset="100%" style="stop-color:rgb(222,123,19)"/></linearGradient><path d=" M 442.699343085754 107.5472758803059 C 441.6812319019537 107.66615855006307 439.779096671874 108.65652627293156 436.8725280219988 110.63666104833715 C 249.09670041438392 238.560820857235 157.73289094089512 123.26794471003461 157.73289094089512 123.26794471003461 L 157.73289094089512 179.5807882792122 C 157.73289094089512 179.5807882792122 198.83124306023944 234.76911441817418 292.3054702012224 223.0474708895975 C 385.8906461580019 201.72602675020028 448.2968897923911 110.44908922339084 442.699343085754 107.5472758803059 Z " fill="url(#_lgradient_0)" stroke-width="6.1395524504930705" stroke="rgba(0,0,0,0)" stroke-linecap="butt"/><linearGradient id="_lgradient_1" x1="0%" y1="50%" x2="35.93420174708516%" y2="-43.32059335859252%"><stop offset="28.042426320643315%" style="stop-color:rgb(191,65,14)"/><stop offset="100%" style="stop-color:rgb(252,177,23)"/></linearGradient><path d=" M 157.7343175329322 179.58257777624112 L 78.07778555592733 377.4243386858117 C 78.07778555592733 377.4243386858117 139.6118433551519 270.3049464195813 213.2859991665331 250.5640160896923 C 286.96015497791427 230.82308575980335 331.7568718696121 219.04175061704336 360.9451076299363 193.35024210719934 C 329.23549558371525 206.02163302748335 278.33904656039545 216.32408027242957 249.77811084950145 214.87946812540162 C 189.7599572572634 211.84374284030918 157.73435507482793 179.58257777624112 157.73435507482793 179.58257777624112 L 157.7343175329322 179.58257777624112 Z " fill="url(#_lgradient_1)" stroke-width="6.1395524504930705" stroke="rgba(0,0,0,0)" stroke-linecap="butt"/><linearGradient id="_lgradient_2" x1="0%" y1="50%" x2="0.2371334250448667%" y2="-49.99971883829837%"><stop offset="0%" style="stop-color:rgb(201,84,16)"/><stop offset="100%" style="stop-color:rgb(201,84,16)"/></linearGradient><path d=" M 157.81542054163708 123.37019631999101 L 78.18037504294523 377.089640171567 C 109.69000141070421 304.70344669036956 157.7961490351712 179.5906492838194 157.7961490351712 179.5906492838194 L 157.81542054163708 123.37019631999101 Z " fill="url(#_lgradient_2)" stroke-width="6.1395524504930705" stroke="rgba(0,0,0,0)" stroke-linecap="butt"/></svg>