<?xml version="1.0" encoding="utf-8"?>
<!-- Generator: Adobe Illustrator 19.2.1, SVG Export Plug-In . SVG Version: 6.00 Build 0)  -->
<svg version="1.1" id="Layer_1" xmlns="http://www.w3.org/2000/svg" xmlns:xlink="http://www.w3.org/1999/xlink" x="0px" y="0px"
	 viewBox="0 0 400 400" style="enable-background:new 0 0 400 400;" xml:space="preserve">
<style type="text/css">
	.st0{fill:#FFFFFF;}
	.st1{fill:#501E30;}
	.st2{fill:#C21E25;}
</style>
<circle class="st0" cx="200" cy="200" r="195.3"/>
<g>
	<g>
		<path class="st1" d="M150.4,196.7c1.4,0,2.7-0.1,3.8-0.3c1.2-0.2,2.4-0.3,3.7-0.3c0.6,0,1.3,0,1.8,0.1c0.6,0.1,1.3,0.1,2,0.1
			c5.1,0,7.7-1.7,7.7-5.1V188c0-0.7,0.1-1.2,0.2-1.7c0.1-0.4,0.2-1,0.2-1.7s-0.1-1.2-0.2-1.5c0.2-0.8,0.3-1.6,0.3-2.3
			c0-0.9-0.2-1.6-0.5-2.2c0-1,0.1-1.9,0.2-2.8c0.1-0.9,0.2-1.8,0.2-2.8c0-0.6,0-1.2-0.1-1.8s-0.2-1.2-0.4-1.7
			c0.3-0.6,0.5-1.2,0.5-1.9c0-0.6-0.1-1.2-0.2-1.7c-0.1-0.6-0.2-1.2-0.2-1.9s0.1-1.2,0.2-1.5c-0.1-0.3-0.2-0.7-0.2-1.2
			c0-1.7,0.2-3.4,0.5-5.1c0.3-1.8,0.5-3.4,0.5-5c0-0.7-0.1-1.4-0.2-2.1c-0.1-0.7-0.2-1.5-0.2-2.3c0-1.1,0.1-2.1,0.2-3
			c0.2-0.9,0.2-1.8,0.2-2.7c0-0.7-0.1-1.3-0.2-1.9c-0.2-0.6-0.2-1.2-0.2-1.7c0-0.9,0.1-1.8,0.2-2.6c0.1-0.9,0.2-1.8,0.2-2.6
			c0-0.3,0-0.6,0-0.9c0-0.3-0.1-0.7-0.2-1.1c0-0.4,0-0.8,0.1-1.2s0.1-0.9,0.1-1.4c0-0.5,0-1-0.1-1.5s-0.1-1-0.1-1.5
			c0-0.3,0-0.6,0.1-1s0.1-0.8,0.1-1.3c0-0.9-0.2-1.6-0.5-2c-0.3-0.5-0.5-0.9-0.5-1.3c0-0.5,0.1-0.9,0.2-1.3c0.1-0.4,0.2-0.8,0.2-1.3
			c0-0.9-0.2-1.6-0.5-2.2c0.3-1,0.5-2.3,0.5-3.9c0-0.9-0.1-1.8-0.2-2.6c-0.2-0.9-0.2-1.6-0.2-2.2c0-0.3,0.1-0.5,0.2-0.7
			c0.1-0.2,0.2-0.4,0.2-0.7c0-0.5,0-1-0.1-1.6s-0.1-1.2-0.1-1.7c0-0.8,0-1.5,0.1-2.3c0.1-0.7,0.1-1.5,0.1-2.3c0-2.1-0.2-4.1-0.5-5.8
			c-0.1,0-0.2-0.1-0.2-0.3v-0.4c-0.3-0.1-0.7-0.2-1-0.4c-0.4-0.2-0.8-0.4-1.2-0.6c-0.4-0.3-0.9-0.5-1.4-0.7c-0.7,0-1.4,0-2.1,0.1
			c-0.6,0-1.3,0.1-1.9,0.1c-2.6,0-5.1,0-7.7-0.1c-2.6-0.1-5.1-0.1-7.5-0.1c-0.7,0-1.8,0-3,0c-1.3,0-2.6,0.1-3.8,0.3
			c-1.3,0.2-2.4,0.5-3.3,1c-0.9,0.5-1.4,1.2-1.4,2.2c0,0.5,0.1,0.9,0.2,1.4c0.2,0.4,0.2,0.9,0.2,1.4c0,0.7-0.1,1.3-0.2,1.9
			c-0.1,0.6-0.2,1.2-0.2,1.9c0,0.6,0.1,1,0.2,1.3l0.2,0.1c-0.1,0.6-0.2,1.1-0.4,1.5s-0.2,0.9-0.2,1.2c0,0.5,0.1,0.9,0.2,1.3
			c0.2,0.4,0.3,0.8,0.4,1.3c-0.4,0.7-0.6,1.4-0.6,2c0,0.7,0.1,1.4,0.3,2.1s0.3,1.5,0.3,2.3c0,0.2,0,0.5,0,0.9s-0.1,0.8-0.3,0.9
			c0.1,0.3,0.2,0.8,0.2,1.6c0,0.4,0,0.8-0.1,1.2c-0.1,0.4-0.1,0.8-0.1,1.3c0,0.6,0.1,1.1,0.2,1.7c0.1,0.5,0.3,1,0.6,1.4
			c-0.1,0.5-0.2,1.4-0.2,2.6v2.8c-0.2,1.3-0.9,2.1-2,2.4c-1.1,0.3-2.2,0.7-3.3,0.9c-1.2-0.1-2.4-0.2-3.6-0.4
			c-1.2-0.1-2.4-0.2-3.6-0.2c-1.3,0-2.4,0.2-3.4,0.5s-2,0.5-3,0.5c-1.3,0-2.5-0.1-3.8-0.4c-1.2-0.2-2.5-0.4-3.9-0.4
			c-0.9,0-1.8,0.1-2.7,0.3c-1,0.2-1.9,0.3-2.9,0.3c-1.8,0-3.5-0.4-5.2-1.2s-2.5-1.9-2.5-3.4c0-0.3,0.1-0.7,0.2-1.3
			c0.2-0.6,0.3-1.2,0.5-2c0.2-0.7,0.3-1.4,0.5-2.1s0.2-1.3,0.2-1.7c0-0.7-0.2-1.3-0.5-2c-0.3-0.6-0.5-1.3-0.5-2
			c0-0.5,0.1-0.9,0.3-1.2c0.2-0.3,0.3-0.8,0.3-1.2c0-0.5-0.1-1-0.2-1.5s-0.2-1-0.2-1.5c0-0.4,0.1-0.8,0.2-1.1
			c0.2-0.3,0.2-0.8,0.2-1.2c0-0.5-0.1-0.9-0.2-1.4c-0.2-0.4-0.2-0.9-0.2-1.4s0.1-0.9,0.3-1.4c0.2-0.4,0.3-0.9,0.3-1.4
			c0-0.7-0.1-1.3-0.3-1.8c-0.2-0.5-0.3-1.2-0.3-2c0-0.5,0.1-1,0.3-1.5c0.2-0.5,0.3-1,0.3-1.5c0-1.4-0.4-2.7-1.3-4s-2-2-3.4-2
			c-0.7,0-1.5,0.1-2.3,0.4c-0.8,0.2-1.6,0.4-2.3,0.4c-1.3,0-2.5-0.1-3.8-0.4c-1.2-0.2-2.5-0.4-3.9-0.4c-0.9,0-1.5,0-2.1,0.1
			c-0.9,0.3-1.7,0.4-2.6,0.4c-1.2,0-2.2-0.1-3.1-0.3c-0.9-0.2-2.1-0.3-3.4-0.3c-0.7,0-1.6,0.1-2.6,0.3c-1,0.2-1.9,0.5-2.7,0.9
			c-0.9,0.4-1.6,1-2.2,1.6c-0.6,0.6-0.9,1.3-0.9,2.1c0.2,0.5,0.4,0.9,0.6,1.2c0.2,0.3,0.2,0.7,0.2,1.2c0,0.7-0.1,1.3-0.2,2
			c-0.2,0.6-0.2,1.3-0.2,2.1c0,0.3,0.1,0.6,0.2,0.9c0.1,0.3,0.2,0.5,0.2,0.7c0,0.1,0,0.2-0.1,0.2c-0.1,0.1-0.1,0.2-0.1,0.4
			c0,0.1,0.1,0.2,0.3,0.4c-0.2,0.5-0.4,1-0.5,1.7c-0.1,0.6-0.2,1.3-0.2,2.1c0,1.1,0.1,2.1,0.3,3.1s0.3,1.9,0.3,2.8
			c0,0.7-0.1,1.2-0.2,1.7c-0.2,0.4-0.2,1-0.2,1.7s0.1,1.2,0.3,1.5c-0.1,0.5-0.2,0.9-0.2,1.3s0,0.8,0,1.3c0,0.9,0,1.7,0.1,2.5
			s0.1,1.7,0.2,2.6c-0.4,0.4-0.6,1-0.6,1.8c0,0.5,0.1,0.9,0.2,1.2c0.2,0.3,0.2,0.7,0.2,1.1c0,0.2-0.1,0.4-0.2,0.7
			c-0.1,0.2-0.2,0.5-0.2,0.8c0,0.7,0.2,1.2,0.5,1.5c0,0.8-0.1,1.5-0.2,2.3c-0.2,0.7-0.2,1.4-0.2,2.1c0,0.7,0.2,1.3,0.5,1.9
			c-0.1,0.4-0.2,0.8-0.2,1.2s0,0.8,0,1.3c0,1.1,0.1,2.1,0.4,3.2c0.3,1.1,0.4,2,0.4,2.9c0,0.5-0.1,1-0.3,1.5s-0.3,1-0.3,1.5
			s0.1,0.9,0.3,1.3c0.2,0.4,0.4,0.8,0.6,1.2c-0.2,0.3-0.4,0.7-0.5,1.1c-0.1,0.4-0.2,0.9-0.2,1.4c0,0.9,0.1,1.8,0.3,2.8
			c-0.2,0.2-0.3,0.6-0.3,1.3c0,0.8,0.1,1.3,0.2,1.5c-0.1,0.5-0.2,1-0.2,1.6s0,1.2,0,1.8c0,2.7,0.2,5.4,0.5,8
			c0.3,0.9,0.5,1.7,0.5,2.6c0,0.8-0.1,1.6-0.2,2.4c-0.2,0.8-0.2,1.7-0.2,2.6c0,0.8,0.2,1.6,0.5,2.5c0,0.9-0.2,1.8-0.5,2.6
			c-0.3,0.9-0.5,1.8-0.5,2.8c0,1.6,0.3,3,1,4.2l-1,1.3c0,0.1,0.1,0.4,0.3,0.9s0.6,1,1.1,1.6s1.3,1.1,2.4,1.5c1.1,0.4,2.4,0.7,4,0.7
			c0.9,0,1.7-0.1,2.6-0.4c0.9-0.2,1.7-0.4,2.6-0.4c1.2,0,2.3,0.1,3.4,0.3s2.3,0.3,3.4,0.3c0.5,0,1.4,0,2.7-0.1
			c1.3,0,2.2-0.2,2.7-0.5c0.9,0.2,1.8,0.3,3,0.2c1.1,0,2.2,0,3.3,0.1c0.9-0.5,1.7-1.2,2.5-2.2s1.2-2,1.2-3.1c0-0.6-0.1-1.2-0.2-1.9
			c-0.2-0.7-0.3-1.3-0.6-1.9c0-0.3,0-0.6,0.1-0.9c0.1-0.3,0.1-0.8,0.1-1.2c0-0.6,0-1.3-0.1-2.2s-0.2-1.4-0.6-1.6
			c0.1-0.5,0.2-1,0.4-1.6c0.2-0.6,0.2-1.2,0.2-1.8c0-0.4-0.1-0.8-0.2-1.1c-0.2-0.3-0.2-0.8-0.2-1.2c0-0.5,0.1-1,0.2-1.5
			s0.2-1,0.2-1.5c0-0.7-0.1-1.2-0.3-1.5c0-0.6,0.1-1.2,0.2-1.8c0.2-0.6,0.2-1.2,0.2-1.8s-0.1-1.1-0.4-1.6s-0.4-1-0.4-1.5
			s0.1-1,0.2-1.5s0.2-1,0.2-1.5s-0.1-1-0.3-1.5c-0.2-0.5-0.3-0.9-0.3-1.3c0-0.1,0.1-0.4,0.3-0.9c0.2-0.5,0.5-1,0.8-1.6
			s0.6-1.1,1-1.6c0.3-0.5,0.5-0.7,0.6-0.7c1.8,0,3.7,0.1,5.6,0.2c1.9,0.1,3.8,0.3,5.6,0.4c0.4-0.1,0.8-0.3,1.1-0.5
			c0.3-0.2,0.7-0.4,1.1-0.5c0.3,0.2,1,0.4,1.9,0.5c1,0.1,2.1,0.3,3.3,0.4c1.2,0.1,2.5,0.1,3.8,0.1s2.5,0,3.4,0c1.1,0,2.1-0.1,3-0.4
			c0.9-0.2,1.9-0.4,3-0.4c1.4,0,2.5,0.3,3.4,0.9c0.9,0.6,1.6,1.4,2.2,2.3v1c0,0.8,0.1,1.6,0.2,2.3c0.1,0.8,0.2,1.6,0.2,2.3
			c0,1.2-0.3,2-0.8,2.6c0,0.2,0,0.4,0.1,0.7c0.1,0.2,0.1,0.5,0.1,0.7c0,0.6-0.1,1.1-0.2,1.6c-0.1,0.5-0.2,1-0.2,1.5s0.1,0.9,0.3,1.4
			c0.2,0.4,0.3,0.9,0.3,1.4c0,0.6-0.1,1.2-0.3,1.8s-0.3,1.2-0.3,1.9c0,0.5,0.1,0.9,0.2,1.4c0.2,0.4,0.2,0.9,0.2,1.4
			c0,0.6-0.1,1.2-0.2,1.8c-0.1,0.6-0.2,1.2-0.2,1.8c0,0.7,0.1,1.2,0.2,1.5l0.2,0.1c-0.3,0.8-0.5,1.6-0.5,2.3c0,0.6,0.1,1.2,0.2,1.8
			c0.1,0.6,0.2,1.3,0.2,2c0,0.2,0,0.4-0.1,0.5s-0.1,0.3-0.1,0.5v0.6c0,0.3-0.1,0.5-0.2,0.6c0.1,1.3,0.7,2.3,1.7,3s2.1,1.3,3.3,1.8
			c1.2-0.2,2.6-0.2,4.2-0.1c1.7,0.1,3.1,0,4.4-0.3c0.2,0,0.5,0.1,1,0.2C149.5,196.6,150,196.7,150.4,196.7z M69.2,171.3h-0.6h-0.2
			c0-0.2-0.2-0.3-0.5-0.4c-0.3,0-0.5-0.1-0.5-0.2c0-0.2,0.2-0.3,0.6-0.3c0.3,0,0.6,0,0.8,0.1c0.2,0.1,0.5,0.2,0.8,0.4
			C69.6,171.2,69.4,171.3,69.2,171.3z M68.1,113.1c-0.4,0-0.6-0.1-0.6-0.3c0-0.2,0.2-0.3,0.6-0.4s0.8-0.1,1.2-0.1
			c0.4,0,0.6,0.1,0.6,0.4C69.3,112.9,68.7,113.1,68.1,113.1z M73.3,121.1c0-0.2,0.3-0.3,0.8-0.3H76c0.6,0,1.1,0,1.3-0.1v0.1l0.2,0.3
			c-0.3,0.6-1.2,0.9-2.6,0.9c-0.2,0-0.5-0.1-1-0.2C73.6,121.6,73.3,121.4,73.3,121.1z M77.3,131.3c-0.3,0.5-0.9,0.7-1.6,0.7
			c-0.5,0-0.9,0-1.1-0.1h-0.3c-0.2,0-0.3,0-0.2-0.1c0.1-0.1,0-0.2-0.2-0.3c0-0.4,0.3-0.6,0.8-0.7c0.5-0.1,1-0.1,1.3-0.1
			C76.4,130.6,76.9,130.8,77.3,131.3z M76,162.5c-0.2,0.1-0.3,0.1-0.6,0.1c-0.1,0-0.3,0-0.7-0.1c-0.4-0.1-0.6-0.2-0.6-0.4
			c0-0.1,0.1-0.1,0.2-0.1c0.2,0,0.2-0.1,0.2-0.3c0.9,0,1.5,0.2,2.1,0.7C76.4,162.4,76.1,162.4,76,162.5z M77.3,152.2
			c0,0.2-0.1,0.3-0.2,0.4c-0.2,0-0.3,0.1-0.4,0.2c-0.4,0-1,0-1.8-0.1c-0.7,0-1.1-0.2-1.1-0.5c0-0.2,0.2-0.4,0.6-0.5s0.8-0.2,1.4-0.2
			c0.7,0,1.3,0.2,1.6,0.6L77.3,152.2L77.3,152.2z M75.3,147.2c-0.2-0.2-0.5-0.3-0.9-0.3s-0.6-0.2-0.6-0.7c0-0.1,0.3-0.2,0.9-0.3
			s1-0.1,1.2-0.1c0.5,0,1,0.2,1.4,0.6C77.1,146.9,76.4,147.2,75.3,147.2z M76.7,137.7c-0.4,0.2-0.9,0.3-1.4,0.3
			c-0.4,0-0.9-0.2-1.3-0.6c-0.1,0-0.2,0.1-0.2,0.1c-0.1,0-0.2-0.1-0.2-0.3c0-0.5,0.3-0.8,0.8-0.9c0.5-0.1,1-0.1,1.4-0.1
			c0.3,0,0.7,0.1,1.3,0.1c0.5,0.1,0.8,0.3,0.8,0.7C77.6,137.4,77.1,137.6,76.7,137.7z M78.6,144.2c0-0.2,0.2-0.3,0.5-0.3l0.2,0.1
			C79.3,144.1,79,144.2,78.6,144.2z M79.9,112.1c0.3,0,0.6,0,0.8-0.1c0.2-0.1,0.5-0.1,0.8-0.1s0.8,0,1.4,0.1s1,0.3,1.2,0.7v0.1
			c0,0.2-0.1,0.3-0.2,0.4c-0.1,0-0.2,0.2-0.3,0.4c-0.1,0-0.2,0-0.2-0.1c-0.1,0-0.1-0.1-0.2-0.1s-0.2,0-0.2,0.1s-0.1,0.1-0.2,0.1
			c-0.2,0-0.3,0-0.4-0.1s-0.2-0.1-0.4-0.1h-0.5c0.2,0-0.1-0.1-0.9-0.4c-0.8-0.2-1.2-0.6-1.2-1.1C79.5,112,79.7,112.1,79.9,112.1z
			 M83.7,128.8c0,0.4-0.3,0.6-1,0.6H82h-0.3c0-0.2-0.1-0.3-0.2-0.4c-0.1,0-0.2-0.2-0.2-0.4c0.4,0,0.6-0.1,0.6-0.3
			c0.2,0.1,0.5,0.1,1,0.1C83.4,128.4,83.6,128.6,83.7,128.8z M81,149.7c-0.4,0-0.6-0.2-0.6-0.6c0-0.1,0.2-0.3,0.6-0.5s0.7-0.4,1-0.4
			c0.1,0,0.2,0.1,0.3,0.3c0,0.5-0.2,0.8-0.5,0.9C81.5,149.6,81.2,149.7,81,149.7z M81.3,165.3c0,0.2-0.2,0.3-0.5,0.3
			c-0.1,0.1-0.2,0.1-0.3,0.1v-0.3V165C80.9,165,81.1,165.1,81.3,165.3z M83.4,171.2c-0.3,0-0.5,0.2-0.6,0.4h-0.5c-0.3,0-0.6,0-1,0.1
			c-0.3,0.1-0.6,0.1-1,0.1c-0.5,0-0.8-0.2-0.8-0.6c0-0.4,0.1-0.6,0.4-0.6s0.5-0.1,0.7-0.3H81c0.2,0,0.3-0.1,0.3-0.3h0.3h1.1
			c0.4,0,0.7,0.1,1,0.3c0,0.1,0.1,0.2,0.2,0.3C83.9,171,83.7,171.2,83.4,171.2z M82.9,154.5h0.3c0.1,0,0.2,0.1,0.2,0.3
			C83.1,154.8,82.9,154.7,82.9,154.5z M84.1,147.8c-0.4,0-0.6-0.1-0.6-0.4c0-0.5,0.3-0.9,0.8-1.1c0.5-0.2,1-0.4,1.3-0.4
			c0.5,0,1.1,0.1,1.7,0.2c0.6,0.1,1.2,0.2,1.8,0.2c-0.9,0.2-1.7,0.5-2.5,0.9C85.7,147.6,84.9,147.8,84.1,147.8z M86,141.7
			c0-0.2,0.1-0.4,0.3-0.5c0.2-0.1,0.4-0.2,0.6-0.2c0.9,0,1.4,0.2,1.8,0.7c-0.3,0.6-1,0.9-2.1,0.9c-0.1-0.2-0.2-0.3-0.4-0.4
			C86.1,142,86,141.9,86,141.7z M89.5,152.1c-0.5,0.1-1,0.2-1.3,0.2c-0.2,0-0.6-0.1-1.1-0.2c-0.5-0.1-0.8-0.4-0.8-0.7
			s0.1-0.4,0.3-0.4c0.2,0,0.4-0.1,0.5-0.3h0.5h1.6c0.3,0,0.6,0,0.8,0.1c0.2,0.2,0.3,0.3,0.3,0.4C90.3,151.7,90,152,89.5,152.1z
			 M90.3,138.5h-0.5h-0.2c-0.3-0.3-0.7-0.6-1.2-0.9c-0.5-0.3-1-0.4-1.7-0.4c-0.3,0-0.6,0-0.9,0.1s-0.6,0.1-0.9,0.1
			c-0.1,0-0.4-0.1-0.9-0.4c-0.5-0.2-1-0.5-1.5-0.9c-0.5-0.3-1-0.7-1.4-1s-0.6-0.6-0.6-0.8s0-0.3,0.1-0.3s0.1-0.1,0.2-0.3
			c0.6,0.1,1.2,0.4,1.7,0.8c0.5,0.4,1.1,0.8,1.8,0.9c0.7,0.2,1.4,0.5,2.1,1c0.6,0.5,1.4,0.7,2.2,0.7c0.4,0,0.7,0,1-0.1
			c0.3,0,0.6,0.1,0.7,0.4c0.2,0.2,0.3,0.5,0.6,0.7C90.8,138.4,90.6,138.5,90.3,138.5z M93.2,134.1h-0.8H92c-0.2-0.8-1-1.2-2.4-1.2
			h-1.1c-1.1,0-1.8-0.2-2.2-0.7c0-0.6,0.7-0.9,2.1-0.9c1.2,0,1.8,0.2,2,0.7s0.7,0.7,1.5,0.7h0.5c0.3,0,0.6,0.1,0.7,0.4
			c0.2,0.3,0.3,0.5,0.6,0.7C93.5,134.1,93.4,134.1,93.2,134.1z M150.6,157c0,0.2,0.1,0.1,0.3-0.1c0.2-0.3,0.7-0.4,1.6-0.4
			c0.3,0,0.6,0.1,0.8,0.4c-0.1,0.4-0.5,0.6-1.1,0.6c-0.3,0-0.7,0-1-0.1C150.7,157.3,150.6,157.2,150.6,157z M151.8,172.3l0.3-0.1
			c0.3,0,0.5,0.1,0.5,0.3C152.1,172.5,151.8,172.4,151.8,172.3z M153.4,167.4c-0.4,0-0.8-0.1-1.2-0.4c-0.4-0.2-0.6-0.5-0.6-0.7
			s0.1-0.3,0.3-0.4c0.2,0,0.4-0.1,0.6-0.1c0.3,0,0.6,0.1,0.8,0.3s0.4,0.4,0.6,0.6C154.1,167.2,153.9,167.4,153.4,167.4z
			 M154.6,148.8h-0.2c-0.1,0-0.2-0.1-0.2-0.3c0-0.3,0.2-0.4,0.5-0.4c0.2,0,0.3,0.1,0.3,0.3C155,148.6,154.9,148.7,154.6,148.8z
			 M157.9,119.5c0.5,0,0.8,0.1,0.8,0.4c-0.1,0.2-0.3,0.3-0.5,0.3h-0.6h-0.2c0-0.1,0-0.1-0.1-0.1s-0.1,0-0.1-0.1
			C157.3,119.7,157.5,119.5,157.9,119.5z M157.7,163.3c0.2,0,0.3-0.1,0.6-0.1s0.5,0.1,0.5,0.4c-0.2,0-0.4,0.1-0.5,0.3
			s-0.3,0.3-0.5,0.3c-0.4,0-0.6-0.3-0.6-0.9C157.3,163.4,157.5,163.4,157.7,163.3z M155.4,135.3c0,0.2-0.1,0.2-0.2,0.1
			c-0.2-0.1-0.2,0-0.2,0.3c-0.3-0.2-0.6-0.3-0.8-0.4c-0.2,0-0.5-0.2-0.8-0.4c0.3-0.3,0.6-0.4,1-0.4c0.5,0,0.9,0.2,1.1,0.6v0.2H155.4
			z M152.5,116.4c0.5-0.3,1-0.4,1.3-0.4c0.1,0,0.4,0.1,0.8,0.3c-0.2,0.6-0.6,0.9-1,1c-0.5,0.1-1,0.2-1.5,0.3c-0.2,0-0.3-0.1-0.3-0.3
			C151.7,117,151.9,116.7,152.5,116.4z M150.9,126.2c0.2-0.1,0.4-0.2,0.6-0.2c0.2,0,0.4,0.1,0.6,0.4c0,0.1-0.2,0.1-0.5,0.1h-1.1
			h-0.3C150.4,126.4,150.7,126.3,150.9,126.2z M149.8,132.2v-0.6c0-0.2,0.2-0.3,0.6-0.3c0.2,0,0.4,0,0.6,0.1c0.2,0,0.3,0.1,0.6,0.1
			c0,0.2,0,0.3,0.1,0.4c0.1,0,0.1,0.1,0.1,0.2c0,0.3-0.2,0.4-0.5,0.4c-0.2,0-0.4,0-0.6-0.1c-0.2,0-0.3-0.1-0.6-0.1L149.8,132.2
			L149.8,132.2L149.8,132.2z M146.7,113.5c0.6,0,1.1,0.2,1.4,0.7c0,0.1-0.1,0.1-0.3,0.1h-1h-0.2c-0.2,0-0.3-0.1-0.3-0.4
			C146.4,113.8,146.5,113.6,146.7,113.5z M143.2,129.3c0.6-0.2,1.4-0.3,2.2-0.3c0.1,0,0.2,0.1,0.3,0.3v0.1c0,0.1-0.1,0.2-0.2,0.3
			H145c-0.4,0-1,0.1-1.8,0.3c-0.7,0.2-1.4,0.4-1.9,0.6c-0.2-0.2-0.3-0.3-0.3-0.4C141.9,129.8,142.6,129.5,143.2,129.3z M137.6,146.1
			c0,0.2-0.2,0.3-0.6,0.3c-0.1-0.2-0.2-0.5-0.2-1h0.2c0.2,0,0.4,0.1,0.6,0.4V146.1z M137.6,137.7c0,0.3-0.2,0.4-0.5,0.4
			c-0.2,0-0.3,0-0.4-0.1c-0.1-0.1-0.2-0.2-0.4-0.3c0-0.1,0.1-0.2,0.2-0.4c0.2-0.2,0.3-0.3,0.4-0.3c0.2,0,0.4,0.1,0.6,0.4
			L137.6,137.7L137.6,137.7z M141.5,142.6c-0.3,0.1-0.5,0.2-0.6,0.4h-0.3h-0.8c-0.4,0-0.6-0.1-0.6-0.4c0-0.8,0.2-1.4,0.5-1.8
			c1.2,0,1.9,0.2,2.1,0.6c0,0.2,0,0.3,0.1,0.4c0.1,0,0.1,0.1,0.1,0.2C141.9,142.3,141.8,142.5,141.5,142.6z M143.2,138.6
			c0-0.5,0.2-0.8,0.5-0.9c0.3-0.1,0.6-0.4,0.8-0.7c0.5,0.2,1,0.4,1.4,0.5s0.9,0.2,1.3,0.2c0.6-0.2,1.1-0.3,1.3-0.3
			c0.5,0,1.2,0.2,1.9,0.7c0.7,0.4,1.1,0.9,1.1,1.4c0,0.2-0.3,0.3-1,0.4c-0.7,0.1-1.1,0.1-1.4,0.1c-1,0-2.2-0.1-3.7-0.2
			C143.9,139.7,143.2,139.3,143.2,138.6z M144.6,147.1c-0.2-0.4-0.4-0.8-0.6-1.1c-0.2-0.3-0.3-0.7-0.3-1.1c0-0.2,0.2-0.4,0.6-0.6
			c0.4-0.2,1-0.4,1.6-0.6c0.6-0.2,1.3-0.3,2-0.4c0.7-0.1,1.3-0.1,1.7-0.1c0.7,0,1.4,0.2,1.9,0.6c0,0.8-0.3,1.2-1,1.4
			c-0.6,0.1-1.2,0.4-1.8,0.7H148C146.4,145.8,145.3,146.2,144.6,147.1z M148,169.8c-0.1,0.1-0.3,0.1-0.5,0.1h-0.8h-0.3
			c0-0.4,0.1-0.7,0.3-0.9h0.2h0.6c0.3,0,0.5,0.1,0.5,0.3V169.8z M147.8,152.8c0.6-1.3,1.8-1.9,3.4-1.9c0,0.1,0.1,0.2,0.2,0.3h0.2
			c0.2,0,0.3,0.2,0.3,0.6c-0.5,0.5-1.2,0.7-1.9,0.7C149.2,152.5,148.5,152.6,147.8,152.8z"/>
		<path class="st1" d="M231.4,125.5c0-0.5-0.1-1-0.4-1.5c-0.3-0.5-0.4-1.1-0.4-1.7c0-0.2,0.1-0.6,0.2-1.1c0.1-0.5,0.3-0.9,0.5-0.9
			c-0.3-1.2-0.5-2.7-0.5-4.5c0-1.2,0.1-2.3,0.2-3.4c0.2-1.1,0.2-2,0.2-2.9c0-0.8-0.2-1.5-0.6-2.1c-0.4-0.6-0.6-1.2-0.6-1.7
			c0-0.4,0.1-0.8,0.2-1.1c0.1-0.3,0.2-0.7,0.2-1.1v-0.6c0.4-0.7,0.6-1.5,0.6-2.5c0-0.7-0.1-1.4-0.2-2c-0.1-0.7-0.3-1.3-0.5-1.8
			c0-0.5,0.1-1,0.2-1.7c0.1-0.6,0.2-1.3,0.2-2c0-1.2-0.5-2.2-1.4-3.1s-2.1-1.4-3.6-1.4h-0.6c-0.5-0.2-1.3-0.3-2.4-0.3
			c-0.7,0-1.5,0-2.3,0.1s-1.6,0.1-2.5,0.1c-0.5,0-1.2-0.1-2.1-0.3c-1.2-0.3-2.3-0.4-3.5-0.4c-1.3,0-2.6,0.1-3.8,0.3
			c-1.3,0.2-2.5,0.3-3.7,0.3c-1.6,0-3.1-0.3-4.5-1c-1.2,0.5-2.1,1.1-2.6,1.9c-0.6,0.8-1.3,1.3-2.2,1.6c0.1,0.3,0.1,0.7,0.1,1.1
			c-0.1,0.4,0,0.8,0.2,0.9c-0.2,0.5-0.4,1.1-0.5,1.8c-0.1,0.7-0.2,1.1-0.2,1.2c0,0.5,0.1,1,0.2,1.5c0.2,0.5,0.2,1,0.2,1.6
			c0,0.2,0,0.4-0.1,0.5s-0.1,0.3-0.1,0.5h-0.2c0,0.1,0,0.2-0.1,0.2c-0.1,0.1-0.1,0.1-0.1,0.2l0.3,0.6c0.2,0.4,0.3,0.8,0.3,1.2
			c0,0.5-0.1,1-0.2,1.5c-0.1,0.5-0.2,1-0.2,1.5s0.1,0.9,0.2,1.2c0,0.6-0.1,1.1-0.2,1.7c-0.2,0.5-0.2,1.1-0.2,1.8
			c0,0.5,0.1,0.9,0.3,1.2c0.2,0.3,0.3,0.8,0.3,1.2c0,0.4-0.1,0.8-0.2,1.2c-0.2,0.4-0.2,0.9-0.2,1.4c0,0.9,0,2.1,0.1,3.7
			s0.2,3,0.4,4.3c-0.1,0.5-0.2,1-0.2,1.6c-0.1,0.6-0.1,1.2-0.1,1.9c0,0.5,0,0.9,0,1.3s0.1,0.8,0.2,1.2l0.2,0.3v0.4
			c0,0.7-0.1,1.3-0.3,2c-0.2,0.6-0.3,1.3-0.3,2c0,0.5,0.1,1,0.3,1.5s0.3,1,0.3,1.5s-0.1,1-0.2,1.6c-0.1,0.6-0.2,1.2-0.2,1.7
			c0,0.6,0.1,1,0.2,1.3c-0.1,0.4-0.2,0.8-0.2,1.2s0,0.8,0,1.2c0,0.5,0,0.9,0,1.3c0,0.4,0.1,0.8,0.2,1.2c0,0.6-0.1,1.2-0.2,1.8
			c-0.2,0.6-0.2,1.3-0.2,2s0.1,1.4,0.2,2c0.2,0.7,0.2,1.4,0.2,2c0,0.7,0,1.3-0.1,1.9c-0.1,0.6-0.1,1.2-0.1,1.9c0,0.4,0,0.8,0,1.2
			s0.1,0.8,0.2,1.3c-0.1,1.8-0.2,3.6-0.2,5.6c-0.1,2-0.2,4-0.6,5.9c-0.1,0.3-0.2,0.8-0.2,1.5c0,0.5,0,0.9,0.1,1.2s0.1,0.7,0.2,1.1
			c-0.1,0.4-0.2,0.8-0.2,1.2s0,0.8,0,1.2c0,1.3,0.2,2.3,0.5,3.2c-0.3,0.6-0.5,1.1-0.5,1.6c0,0.4,0,0.8,0.1,1.1s0.1,0.8,0.1,1.2
			s-0.1,0.8-0.2,1.2c-0.1,0.4-0.2,0.8-0.2,1.2c0,0.7,0.1,1.4,0.3,2c0.2,0.7,0.3,1.4,0.3,2c0,0.2-0.1,0.4-0.2,0.7
			c-0.1,0.3-0.2,0.5-0.2,0.6s0.1,0.2,0.2,0.3c0.1,0.1,0.2,0.2,0.2,0.4v0.3c0.7,0.4,1.2,0.9,1.4,1.5s0.7,1,1.6,1.2
			c1,0.1,1.9,0.2,3,0.2c1,0,2.1,0.1,3.1,0.1c1.9,0,3.8-0.1,5.8-0.3c1.9-0.2,3.8-0.3,5.6-0.3c0.2,0,0.3,0,0.4,0.1
			c0.1,0,0.2,0.1,0.4,0.1c1.2-0.1,2.6-0.1,4.3-0.1s3.2,0,4.6-0.1c0.4,0,0.7-0.1,0.9-0.2c0.2-0.1,0.3-0.2,0.6-0.2h0.3
			c0.4-0.4,0.9-0.7,1.4-1s0.9-0.6,1.3-1c0.4-0.4,0.7-0.9,0.9-1.5s0.3-1.4,0.3-2.3c0-0.7-0.1-1.3-0.2-2c-0.1-0.6-0.2-1.3-0.2-2
			s0.1-1.3,0.2-1.8c0.1-0.5,0.2-1.1,0.2-1.9c0-0.7,0-1.5-0.1-2.6c-0.1-1-0.2-1.6-0.4-1.8c0.3-0.7,0.5-1.7,0.5-3.1
			c0-1.1-0.1-2.1-0.2-3.1c-0.1-1-0.2-1.9-0.2-2.8c0-1,0.1-1.9,0.2-2.8c0.2-0.9,0.2-1.7,0.2-2.5c0-0.4-0.1-0.7-0.2-1
			c-0.2-0.3-0.2-0.6-0.2-1c0-0.6,0.1-1.1,0.2-1.7c0.2-0.5,0.2-1,0.2-1.5c0-0.4-0.1-0.7-0.2-1c-0.2-0.3-0.2-0.6-0.2-0.9
			c0-0.5,0.1-1,0.2-1.5c0.2-0.5,0.2-1,0.2-1.5c0-0.8-0.1-1.9-0.2-3.4c-0.1-1.5-0.2-2.7-0.3-3.8c0.2-0.6,0.3-1,0.3-1.3
			c0-0.5-0.1-1-0.2-1.5c-0.2-0.5-0.2-1.1-0.2-1.7c0-0.5,0.1-0.9,0.2-1.3c0.2-0.4,0.2-0.9,0.2-1.5s-0.1-1.2-0.3-1.8
			c0.1-0.3,0.2-0.8,0.2-1.5c0-0.5-0.1-1-0.2-1.5c-0.1-0.5-0.2-1.1-0.2-1.7c0-0.5,0.1-0.9,0.4-1.2c0.3-0.3,0.4-0.9,0.4-1.7
			c0-0.5-0.1-0.9-0.3-1.3c-0.2-0.4-0.3-0.8-0.3-1.3c0-0.2,0.1-0.5,0.3-0.8C231.3,126.1,231.4,125.8,231.4,125.5z M204.8,146.6
			c0-0.1,0-0.1,0.1-0.1s0.1,0,0.1-0.1h0.2h0.3c0.2,0,0.3,0.1,0.3,0.3v0.1h-0.2h-0.5C204.9,146.8,204.8,146.7,204.8,146.6z
			 M205.4,162.3c-0.3,0-0.5-0.1-0.5-0.3c0-0.1,0.2-0.1,0.5-0.1s0.5,0.1,0.5,0.3C205.9,162.2,205.7,162.3,205.4,162.3z M205.9,137.2
			h-0.2c-0.1,0-0.2,0-0.3,0.1c-0.1,0-0.2,0.1-0.3,0.1s-0.2,0-0.2-0.1c0-0.2,0.2-0.3,0.6-0.3C205.7,137,205.8,137,205.9,137.2
			L205.9,137.2L205.9,137.2z M206.2,121.3L206.2,121.3c-0.2,0.4-0.5,0.5-1,0.5c-0.1,0-0.2,0-0.3-0.1v-0.1c0-0.1,0.1-0.1,0.2-0.1
			c0.2,0,0.2-0.1,0.2-0.3h0.2h0.6v0.1H206.2z M213.9,171.1c0.1,0.1,0.1,0.1,0.1,0.2l-0.2,0.1c-0.1,0-0.2,0-0.3-0.1
			c-0.4,0-0.8,0.1-1.2,0.3s-0.8,0.3-1.2,0.3c-0.1,0-0.4,0-1-0.1c-0.5-0.1-0.8-0.2-0.8-0.4c0.4-0.7,1-1,1.8-1.1
			c0.8,0,1.6-0.1,2.5-0.1v0.1c0,0.1,0.1,0.1,0.2,0.1c0.1,0,0.2,0,0.2,0.1c-0.1,0-0.2,0.1-0.2,0.3C213.9,171,213.9,171,213.9,171.1z
			 M213.9,113.1c-0.1,0.1-0.2,0.2-0.3,0.4c-0.1,0-0.2,0-0.3-0.1c-0.1,0-0.2-0.1-0.3-0.1v0.1c0,0.1-0.1,0.1-0.2,0.1
			c-0.2,0-0.3,0-0.4-0.1c-0.1-0.1-0.2-0.1-0.4-0.1h-0.3l-1-0.3c-0.6-0.2-1-0.4-1-0.7c0-0.3,0.3-0.5,1-0.5c0.6,0,1.1-0.1,1.3-0.1
			c0.6,0,1.1,0.1,1.4,0.3c0.3,0.2,0.5,0.4,0.7,0.6C214,112.9,214,113,213.9,113.1z M220.4,111.1c0.1,0,0.3,0,0.6,0.1
			c0.3,0,0.7,0.3,1.3,0.8v0.4c0,0.2-0.2,0.3-0.5,0.3h-1h-0.2c0-0.1-0.1-0.2-0.2-0.3c-0.1,0.1-0.2,0.1-0.3,0.1s-0.2-0.1-0.2-0.4
			c-0.1-0.2-0.1-0.4-0.1-0.5C219.9,111.2,220.1,111.1,220.4,111.1z M217.1,132.2c0-0.1,0.1-0.1,0.2-0.1c0.1,0,0.2-0.1,0.2-0.3h0.2h1
			c0.2,0,0.4,0.1,0.5,0.3c-0.1,0.2-0.4,0.3-0.8,0.3h-0.8h-0.3v-0.2H217.1z M219.1,151.6c0,0.1-0.2,0.1-0.5,0.1h-1h-0.3
			c-0.2-0.2-0.3-0.3-0.3-0.4h0.2l0.3-0.1c0.2,0,0.4,0,0.6,0.1c0.2,0,0.3,0.1,0.6,0.1c0.2,0,0.4,0,0.5-0.1v0.3H219.1z M222,172
			c-0.4,0.2-0.7,0.3-1,0.3c-0.5,0-0.8-0.2-0.8-0.5s-0.1-0.5-0.3-0.5v-0.1c0-0.2,0.1-0.3,0.2-0.3c0.1,0,0.2-0.1,0.2-0.3
			c0.2,0.1,0.6,0.1,1.1,0.1s0.9,0,1.1,0.2c0,0.1,0,0.2,0.1,0.2c0.1,0.1,0.1,0.1,0.1,0.2C222.7,171.6,222.4,171.8,222,172z"/>
		<path class="st1" d="M339,109.7c-0.1-0.6-0.2-1.2-0.2-1.8c0-0.9,0.1-1.8,0.2-2.6c0.1-0.9,0.2-1.7,0.2-2.5c0-1.1-0.1-1.9-0.4-2.6
			s-0.4-1.3-0.4-1.7c0-0.5,0.1-0.9,0.2-1.4c0.1-0.4,0.2-0.9,0.2-1.4s-0.1-0.8-0.2-1c-0.4-0.5-0.6-1-0.5-1.7c0.1-0.6,0-1.2-0.3-1.7
			c-0.2-0.7-0.6-1.1-1.2-1.3c-0.6-0.2-1.3-0.3-2-0.4c-0.7,0-1.5-0.1-2.2-0.1s-1.3-0.3-1.7-0.7h-1.1c-1.6,0-3.1,0.1-4.6,0.3
			c-1.4,0.2-2.9,0.3-4.4,0.3c-0.5,0-1.1-0.1-1.6-0.2s-1.1-0.2-1.6-0.2c-0.6,0-1.3,0-2.1,0.1c-0.7,0.1-1.5,0.1-2.2,0.1
			s-1.5-0.1-2.2-0.2s-1.5-0.2-2.4-0.2s-1.6,0.1-2.2,0.1c-0.6,0.1-1.3,0.1-2.1,0.1h-1.3c-0.5,0-1.1,0.1-1.8,0.3
			c-0.5-0.1-1-0.2-1.4-0.2s-0.9-0.1-1.4-0.1c-1,0-1.9,0.1-2.8,0.1c-0.9,0.1-1.8,0.1-2.6,0.1c-1.4,0-2.7-0.1-3.9-0.3
			c-1.2-0.2-2.5-0.3-3.9-0.4c-1.2-0.4-2.4-0.6-3.7-0.6c-1.2,0-2.4,0.1-3.7,0.3c-1.3,0.2-2.6,0.3-4,0.3c-0.5,0-1.1,0-1.8-0.1
			c-0.6-0.1-1.2-0.1-1.8-0.1c-0.7,0-1.4,0.1-2,0.4c-0.6,0.2-1.3,0.4-2,0.4c-0.2,0-0.3,0-0.4-0.1c-0.1,0-0.2-0.1-0.4-0.1
			c-0.5,0.1-1.3,0.1-2.4,0.1h-3.7c-1.2,0-2.2,0.1-3.2,0.4c-1,0.2-1.7,0.8-2.2,1.7v0.7c0,0.8-0.2,1.4-0.6,1.8c-0.4,0.4-0.6,1-0.6,1.8
			c0,0.4,0.1,0.7,0.2,1c0.2,0.3,0.2,0.6,0.2,1c0,0.5,0,1-0.1,1.6s-0.1,1.1-0.1,1.6c0,0.8,0.1,1.4,0.3,1.8c-0.3,1.1-0.5,2.2-0.5,3.4
			c-0.1,1.4,0,2.9,0.2,4.7c0.3,1.8,0.6,3.3,1,4.4c0.1,0.5,0.6,0.8,1.5,1c0.9,0.2,1.9,0.3,3.1,0.4c1.2,0,2.4,0.1,3.8,0.1
			c1.3,0,2.5,0,3.4,0c1.6,0,3.2,0,4.9-0.1c1.6-0.1,3.1-0.1,4.4-0.1c0.9,0,1.6,0.2,2.2,0.7s1.1,1.1,1.4,1.8c0.4,0.7,0.6,1.5,0.8,2.3
			c0.2,0.8,0.2,1.6,0.2,2.3c0,0.4-0.1,0.8-0.2,1.1c-0.2,0.3-0.3,0.7-0.6,0.9c0,0.5,0,1,0.1,1.6s0.1,1.2,0.1,1.9c0,1-0.1,2-0.2,3.2
			s-0.4,1.7-1,1.7c0.2,0.8,0.3,1.4,0.3,1.8c0,0.6-0.1,1.2-0.2,1.8s-0.2,1.1-0.2,1.6s0.1,0.9,0.2,1.2c0.2,0.3,0.2,0.7,0.2,1.1
			c0,0.3,0,0.6-0.1,0.8s-0.1,0.5-0.2,0.8c0.1,0.4,0.2,0.9,0.2,1.6c0,0.8-0.1,1.6-0.2,2.4c-0.1,0.8-0.2,1.6-0.2,2.4
			c0,0.7,0.1,1.3,0.2,2c0.1,0.6,0.2,1.2,0.2,1.8c0,1-0.1,1.9-0.2,2.8c-0.1,0.9-0.2,1.8-0.2,2.8c0,4.7,0.2,9.1,0.5,13.3
			s0.5,8.8,0.5,13.6c0,1.2-0.1,2.3-0.2,3.4c-0.1,1.1-0.3,2.2-0.5,3.1c0.4,0.9,1,1.7,1.8,2.4c0.7,0.7,1.5,1.3,2.4,1.8
			c3.1,0,6.2,0.1,9.4,0.2c3.1,0.1,6.3,0.2,9.5,0.2c1.1,0,2.1,0,3.2-0.1s2.1-0.1,3.2-0.2c0.3,0.2,0.7,0.3,1.3,0.3
			c0.9,0,1.5-0.3,2.1-0.9c0.5-0.6,1.1-1.2,1.8-1.7c0.5,0,0.8-0.2,0.8-0.7c-0.1-0.3-0.2-0.8-0.2-1.5s0.1-1.3,0.2-2
			c0.1-0.6,0.2-1.3,0.2-2.1c0-0.7-0.1-1.3-0.2-2c-0.1-0.6-0.2-1.3-0.2-2.1s0.2-1.3,0.5-1.6s0.5-0.8,0.5-1.6c0-1-0.1-1.9-0.2-2.8
			c-0.1-0.9-0.2-1.8-0.2-2.8c0-0.7,0.1-1.3,0.2-2c0.1-0.6,0.2-1.3,0.2-2.1c0-0.7-0.1-1.4-0.3-2.2c0.2-0.6,0.3-1.1,0.3-1.6
			c0-0.7-0.1-1.3-0.2-1.8s-0.2-1-0.2-1.6c0-0.7,0.1-1.1,0.3-1.3c0-0.8,0-1.5-0.1-2.3c-0.1-0.7-0.1-1.5-0.1-2.3
			c0.1-0.3,0.2-0.7,0.2-1.2s-0.1-1-0.2-1.5s-0.2-1.1-0.2-1.7c0-0.5,0.1-0.9,0.2-1.4c0.1-0.4,0.2-0.9,0.2-1.4c0-0.4-0.1-0.8-0.2-1.2
			s-0.2-0.7-0.2-0.9c0-0.3,0.1-0.6,0.2-0.9c0.1-0.3,0.2-0.7,0.2-1.1c0-0.9-0.1-1.8-0.2-2.6c-0.1-0.9-0.2-1.8-0.2-2.6
			c0-0.5,0.1-1,0.2-1.6s0.2-1.1,0.2-1.6c0-0.8-0.2-1.4-0.5-2c-0.3-0.5-0.5-1.1-0.5-1.8c0-0.5,0.1-1.1,0.2-1.9c0.2-0.8,0.2-1.5,0.2-2
			s-0.2-1.1-0.5-1.5s-0.5-1-0.5-1.7c0-0.5,0.1-0.9,0.3-1.2c0.2-0.3,0.3-0.8,0.3-1.2c0-0.5-0.2-0.9-0.5-1.4s-0.5-0.9-0.5-1.2
			c0-2.2,0.6-4,1.8-5.2c1.2-1.2,2.9-1.8,5.3-1.8c0.7,0,1.5,0.2,2.3,0.5s1.7,0.5,2.8,0.5c0.7,0,1.5,0,2.3-0.1s1.5-0.2,2.2-0.3
			c0.7,0.3,1.6,0.4,2.6,0.4c1.5,0,2.6-0.2,3.2-0.5s1.4-0.8,2.4-1.2c0.1-0.2,0.4-0.7,0.9-1.5s0.9-1.4,1.4-1.7
			C339.4,110.9,339.1,110.3,339,109.7z M270.5,112.5c-0.3,0-0.5-0.1-0.5-0.3c0-0.3,0.2-0.4,0.6-0.4s0.7,0,0.8,0.1
			C271.4,112.3,271.1,112.5,270.5,112.5z M281.6,113.2c-0.2,0.3-0.6,0.5-1.1,0.5H280h-0.8c-0.6,0-1-0.2-1.1-0.6c0-1,0.3-1.5,0.8-1.6
			c0.6,0.1,1.3,0.1,2,0.1s1.1,0.2,1.4,0.7C282.1,112.6,281.9,112.8,281.6,113.2z M282.4,106.8c-0.4,0.2-1.1,0.3-1.9,0.3
			c-0.3-0.1-0.5-0.2-0.5-0.4c0-0.3,0.4-0.5,1.1-0.7c0,0.2,0.2,0.3,0.5,0.3h0.6c0.2,0,0.3,0.1,0.3,0.1
			C282.6,106.6,282.5,106.7,282.4,106.8z M286.1,117c-0.6,0-1-0.1-1-0.3c0-0.1,0-0.1,0.1-0.1s0.1-0.1,0.1-0.3c0.3,0,0.6,0,0.8,0
			c0.2,0,0.4,0.1,0.5,0.4C286.4,116.9,286.2,117,286.1,117z M287.4,112.4c-0.4,0.1-0.9,0.1-1.4,0.1c-0.6,0-1.1-0.1-1.4-0.4V112
			c0-0.1-0.1-0.2-0.2-0.3c0-0.2,0.2-0.5,0.6-0.9s0.7-0.6,0.9-0.6c0.5,0,1,0.1,1.3,0.4s0.6,0.5,1,0.7
			C288,112,287.8,112.4,287.4,112.4z M288.5,102.6c0.9-0.2,1.6-0.4,2.3-0.7c0.7-0.3,1.5-0.4,2.5-0.4c0,0.2,0.1,0.3,0.2,0.2
			c0.2,0,0.3,0,0.6,0.1v0.1c0,0.2,0.1,0.3,0.2,0.3c0,0.5-0.4,0.8-1.3,0.9s-1.8,0.2-2.7,0.2C289.3,103.3,288.7,103.1,288.5,102.6z
			 M292.5,110.2c0,0.2-0.1,0.3-0.2,0.4H292l-0.2,0.1v0.1c-0.4,0-0.6-0.3-0.6-0.9c0.1,0,0.2,0,0.3-0.1c0.1,0,0.3-0.1,0.5-0.1
			C292.4,109.9,292.5,110,292.5,110.2z M293.3,126.5c0,0.6-0.3,1-0.8,1.4c-0.5,0.3-1.2,0.5-1.9,0.5c-0.5,0-1.1-0.1-1.8-0.3
			c0.2-0.8,0.7-1.3,1.6-1.5s1.6-0.5,2.2-0.7c0,0.2,0.1,0.3,0.3,0.3h0.3L293.3,126.5L293.3,126.5z M292.8,120.8
			c-0.3-0.2-0.7-0.3-1.2-0.3h-1.4c-0.4,0-0.7-0.2-0.8-0.5c-0.1-0.3-0.3-0.6-0.5-0.8c0-0.3,0.2-0.4,0.7-0.4s0.8,0,1-0.1
			c0.2,0.2,0.6,0.4,1.1,0.7c0.5,0.2,1,0.4,1.4,0.4c0.7,0,1.3-0.2,1.7-0.7s0.9-0.7,1.5-0.7c0.2,0,0.7,0.1,1.4,0.3
			c0.7,0.2,1,0.5,1,0.9c-0.6,0.4-1.4,0.7-2.2,1c-0.9,0.3-1.7,0.4-2.6,0.4C293.4,121.1,293,121,292.8,120.8z M298.4,133.8
			c0,0.4-0.3,0.6-0.8,0.6h-1.3h-0.5c0-0.2-0.1-0.3-0.2-0.3s-0.2-0.1-0.2-0.3c0.3-0.1,0.6-0.2,1-0.3c0.3-0.1,0.6-0.1,1-0.1
			S298.2,133.5,298.4,133.8z M296.7,174.4c-0.2,0-0.4-0.1-0.6-0.2c-0.2-0.1-0.3-0.2-0.6-0.2c0.4-0.4,0.8-0.5,1.2-0.6
			c0,0,0.1,0.1,0.4,0.1c0.4,0.1,0.7,0.2,0.8,0.4C297.6,174.2,297.2,174.4,296.7,174.4z M298.3,153.6c0,0.2-0.1,0.3-0.2,0.2
			c-0.1,0-0.2,0-0.3,0.2h-0.2c0-0.1-0.1-0.1-0.2-0.1c-0.2,0-0.3,0-0.3-0.1c0.1-0.1,0.2-0.2,0.3-0.4c0.1-0.1,0.3-0.2,0.5-0.2l0.3,0.3
			v0.1H298.3z M299.7,143.7c-0.7,0-1.3,0.1-1.7,0.4c-0.4,0.2-1,0.4-1.8,0.4c-0.2,0-0.5,0-0.7-0.1c-0.3,0-0.4-0.2-0.4-0.5
			c0-0.2,0.2-0.3,0.6-0.4c0.4-0.1,0.8-0.1,1.1-0.1h1.4c0.3,0,0.6,0,0.7-0.1c0.2,0,0.4-0.1,0.7-0.1c0.3,0,0.5,0.1,0.5,0.1
			C300.2,143.5,300,143.6,299.7,143.7z M300.2,114.6v0.4c0,0.2-0.1,0.3-0.2,0.3s-0.2,0-0.2-0.1c0,0-0.1-0.1-0.2-0.1v0.1
			c-0.9,0.2-1.8,0.2-2.9,0.1s-1.9,0-2.6,0.1c-0.5-0.1-1.1-0.2-1.8-0.3c-0.7-0.1-1-0.4-1-0.9s0.3-0.8,0.9-0.9s1-0.2,1.4-0.2
			c0.6,0,1.3,0.1,1.9,0.2s1.3,0.2,2.1,0.2c1.2,0,2,0.2,2.6,0.7L300.2,114.6L300.2,114.6z M301.6,110.5c0-0.4,0.2-0.7,0.6-0.9
			c0.4-0.2,0.8-0.3,1.4-0.3c0.4,0,0.7,0,1,0.1h0.3c0.2,0,0.3,0.1,0.2,0.3c-0.1,0.2-0.1,0.3,0.2,0.3c-0.2,0.4-0.4,0.7-0.5,1
			s-0.4,0.4-1,0.4c-0.4,0-0.9-0.1-1.4-0.4C301.9,110.8,301.6,110.6,301.6,110.5z M305.1,172.6c0,0.1-0.1,0.1-0.2,0.1h-0.5h-0.3
			c0-0.2,0-0.4,0.1-0.6c0.1-0.2,0.2-0.3,0.4-0.3c0.2,0,0.3,0.1,0.2,0.2c-0.1,0.1,0,0.2,0.2,0.2L305.1,172.6L305.1,172.6z
			 M305.1,166.8c-0.1,0.1-0.3,0.1-0.5,0.1h-0.8h-0.2c0-0.4,0.1-0.7,0.2-0.9h0.2h0.8c0.3,0,0.5,0.1,0.5,0.3
			C305.3,166.5,305.2,166.7,305.1,166.8z M304.7,145.9c-0.3,0-0.5-0.2-0.5-0.7h0.8c0.2,0,0.4,0.1,0.5,0.3
			C305.2,145.8,305,145.9,304.7,145.9z M304.7,106.2c-0.7,0-1.1-0.2-1.1-0.7c0-0.4,0.2-0.6,0.7-0.7s0.9-0.1,1.2-0.1
			c0.3,0,0.5,0.1,0.5,0.4C305.7,105.9,305.3,106.2,304.7,106.2z M305.9,96.9c-0.1,0.1-0.2,0.1-0.3,0.1c-0.2,0-0.3-0.1-0.3-0.4
			c0-0.2,0.1-0.3,0.2-0.3c0.3,0,0.5,0.1,0.5,0.4v0.2H305.9z M306.7,116c-0.2,0-0.3-0.2-0.3-0.6c0-0.1,0.2-0.1,0.5-0.1
			c0.2,0,0.4,0.1,0.5,0.3C307.4,115.9,307.2,116,306.7,116z M314.1,108.3c-0.3,0.2-0.7,0.3-1.3,0.3c-0.5,0-0.9,0.1-1.1,0.3
			c0-0.1-0.1-0.2-0.2-0.3c0-0.2,0.3-0.5,1-0.9c0,0.1,0.1,0.1,0.3,0.1c0.2,0,0.4,0,0.5-0.1c0.1,0,0.3-0.1,0.5-0.1s0.3,0.1,0.3,0.3
			L314.1,108.3L314.1,108.3z"/>
		<path class="st1" d="M132.9,292.4c0-0.2,0-0.4,0.1-0.6c-0.1-0.6-0.1-1.3-0.2-2.1c0-0.8-0.3-1.4-0.7-1.9c-0.2-0.4-0.4-0.8-0.4-1.4
			s-0.1-1.1-0.4-1.5c-0.7-0.1-1.1-0.6-1.1-1.3c0-0.7-0.2-1.3-0.6-1.8c-0.1-0.1-0.3-0.3-0.6-0.6c-0.3-0.3-0.7-0.7-1.2-1.1
			c-0.4-0.4-0.9-0.8-1.3-1.2c-0.4-0.4-0.8-0.7-1.1-0.9c-0.2-0.6-0.7-1-1.3-1.2c-0.6-0.2-1.2-0.4-1.9-0.7c-0.7-0.2-1.2-0.5-1.8-0.8
			c-0.5-0.3-0.8-0.8-0.8-1.4c0-0.7,0.6-1.4,1.8-2.1c1.2-0.7,2.2-1.1,2.9-1.4c0.2-0.2,0.3-0.5,0.4-0.8s0.3-0.6,0.6-0.7
			c0-0.5,0.1-1,0.4-1.3c0.3-0.4,0.6-0.7,0.9-1.1c0.3-0.3,0.6-0.7,0.9-1s0.4-0.8,0.4-1.4c0-0.1,0.1-0.3,0.2-0.6
			c0.2-0.2,0.2-0.5,0.2-0.9c0-0.1,0-0.3-0.1-0.3c0-0.1-0.1-0.2-0.1-0.3c0-0.5,0.1-0.9,0.4-1.1s0.4-0.6,0.4-1s0-0.7-0.1-1
			s-0.1-0.6-0.1-1c0-0.1,0-0.3,0.1-0.5c0-0.2,0.1-0.4,0.1-0.5c0-0.5-0.1-1-0.3-1.4s-0.3-0.9-0.3-1.4c0-0.3,0-0.6,0.1-0.8
			c-0.6-0.4-0.8-1-0.7-1.8c0.1-0.8,0-1.4-0.4-1.9c-0.4-0.1-0.7-0.4-0.9-0.7c-0.2-0.3-0.3-0.6-0.4-0.9c-0.1-0.3-0.2-0.7-0.2-1.1
			c-0.1-0.4-0.2-0.7-0.5-0.9c-0.7-0.2-1.2-0.6-1.5-1c-0.4-0.4-0.7-0.9-1.1-1.3c-0.4-0.4-0.8-0.8-1.2-1.1c-0.4-0.3-1-0.6-1.8-0.7
			c-0.2-0.3-0.4-0.5-0.7-0.7c-0.3-0.2-0.6-0.4-0.9-0.6c-0.7-0.1-1.4-0.2-2.1-0.5s-1.4-0.6-2.1-0.9c-0.7-0.3-1.4-0.6-2.2-0.9
			c-0.8-0.3-1.6-0.4-2.6-0.4h-0.7c-0.2,0-0.4-0.1-0.6-0.2c-0.2-0.1-0.4-0.2-0.7-0.2c-0.3,0.1-0.8,0.1-1.3,0.1c-1,0-1.9-0.1-2.6-0.4
			c-0.8-0.3-1.6-0.4-2.6-0.4c-0.2,0-0.3,0-0.5,0.1c-0.2,0-0.4,0.1-0.5,0.1c-0.4-0.1-0.8-0.1-1-0.1c-0.3,0-0.6,0-1,0
			c-0.5,0-0.9,0-1.3,0s-0.8,0.1-1.2,0.2c-0.3-0.4-0.8-0.6-1.3-0.7c-0.5-0.1-1.1-0.1-1.6-0.1c-0.2,0-0.7,0-1.5,0
			c-0.7,0-1.2,0.1-1.3,0.3H89h-0.4c-0.2,0-0.2,0-0.2-0.1c-1.5-0.3-3.4-0.4-5.5-0.4c-1.1,0-2.3,0-3.4,0.1c-1.1,0-2.2,0.1-3.3,0.1
			c-0.3,0.1-0.8,0.1-1.5,0.1c-0.8,0-1.6-0.1-2.3-0.2c-0.7-0.1-1.5-0.2-2.3-0.2c-0.2,0-0.5,0-0.8,0.1s-0.5,0.1-0.8,0.1
			c-1.3,0-2.5,0.1-3.5,0.2c-1,0.1-2,0.4-2.9,0.8c-0.5,0.7-0.8,1.6-0.9,2.8c-0.1,1.2-0.2,2.3-0.2,3.2c0,0.4,0,0.7,0.1,0.9
			c0.1,0.3,0.2,0.5,0.2,0.8c-0.2,0.2-0.2,0.3-0.2,0.4c0,0.1,0,0.1,0.1,0.2c0,0.1,0.1,0.1,0.1,0.2c0,0.1,0,0.2-0.1,0.3
			c0,0-0.1,0.1-0.1,0.2v1.9c0,0.8,0,1.7,0,2.5c0,0.9,0,1.7-0.1,2.5c0.2,0.4,0.4,0.9,0.4,1.6c0,0.8-0.1,1.5-0.4,2.1
			c-0.3,0.6-0.4,1.3-0.4,2.3c0,0.9,0.1,1.7,0.4,2.3c0.2,0.6,0.4,1.4,0.4,2.2c0,0.2,0,0.4-0.1,0.6c0,0.2-0.1,0.4-0.1,0.6
			c0,0.4,0.1,0.9,0.2,1.3c-0.2,0.8-0.2,1.7-0.2,2.5c0,0.9,0,1.7,0,2.5v3.3c0,1,0,1.9,0,2.8s-0.1,1.8-0.2,2.7
			c-0.2,0.6-0.4,1.4-0.4,2.3c0,1,0.2,1.6,0.6,2v0.4c0,0.5,0,1,0.1,1.4s0.1,0.9,0.1,1.4c0,0.4-0.1,0.7-0.2,1.1
			c-0.1,0.4-0.2,0.7-0.2,1.1c0,0.5,0.1,1,0.2,1.6c0.1,0.5,0.2,1,0.2,1.6c-0.2,0.7-0.4,1.3-0.4,2c0,0.4,0.1,0.7,0.2,1
			c0.2,0.3,0.2,0.6,0.2,1c0,0.5-0.1,1-0.3,1.5s-0.3,1-0.3,1.5c0,0.2,0.1,0.5,0.2,0.7c0.2,0.3,0.2,0.5,0.2,0.6c0,0.3-0.1,0.6-0.2,0.9
			c-0.2,0.3-0.2,0.6-0.2,1c0,0.5,0.1,1,0.2,1.6c0.1,0.5,0.2,1.1,0.2,1.7c0,0.4,0,0.8-0.1,1v1.2c0,0.5,0,1.1,0,1.7s0,1.1-0.1,1.6
			c0.3,0.1,0.5,0.4,0.7,0.8c0.1,0.5,0.2,0.9,0.2,1.3c0,0.3-0.1,0.5-0.2,0.7c-0.2,0.2-0.2,0.5-0.2,0.9c0,0.1,0.1,0.3,0.2,0.6
			c0.2,0.3,0.4,0.7,0.7,1.1s0.6,0.7,1.1,1c0.4,0.3,1,0.4,1.6,0.4c0.5,0,1,0,1.6-0.1c0.6,0,1.2-0.1,1.8-0.1h1.2c0.3,0,0.6,0,1-0.1
			c0.3,0,0.7-0.1,1.1-0.1c1.1,0,2.3,0.1,3.5,0.2s2.5,0.2,3.8,0.2c0.5,0,1,0,1.5-0.1c0.5,0,1.1-0.1,1.6-0.2h0.1h0.4
			c0.7,0,1.5,0.1,2.3,0.4s1.5,0.4,2.3,0.4c0.4,0,0.8-0.1,1.3-0.2c0.4-0.1,1-0.2,1.5-0.2c0.3,0,0.6,0,0.9,0.1c0.3,0,0.6,0.1,0.9,0.1
			c0.5,0,1.1-0.1,1.7-0.2c0.8,0,1.5,0.1,2.2,0.3c0.6,0.2,1.5,0.3,2.4,0.3h1.8h1.1c0.4-0.4,1.2-0.7,2.3-0.7c0.4,0,0.9,0,1.3,0.1
			c0.5,0,0.9,0.1,1.3,0.1s0.8-0.1,1-0.2c0.3-0.1,0.7-0.2,1.2-0.2h1.6c0.1,0,0.3,0,0.8-0.1c0.4-0.1,1-0.2,1.6-0.3
			c0.6-0.1,1.2-0.3,1.8-0.4c0.6-0.1,1-0.2,1.3-0.4c2-0.4,3.9-1.1,5.5-2.2c1.7-1.1,3.1-2.1,4.2-3.2c0.6-0.1,1.1-0.4,1.5-0.8
			c0.3-0.4,0.6-0.8,1-1.1c0.3-0.6,0.8-1.1,1.3-1.4c0.6-0.4,1-0.9,1.3-1.4v-0.3c0-0.9,0.3-1.6,0.8-2.1s0.9-1.1,1-1.9
			c0-1.3,0.2-2.5,0.6-3.7c0.4-1.2,0.6-2.4,0.6-3.7c0-0.6-0.1-1.1-0.2-1.6C133,293.2,132.9,292.8,132.9,292.4z M67.9,306.9
			c-0.1,0-0.2-0.1-0.4-0.2c0-0.1,0.1-0.2,0.2-0.2s0.2,0.1,0.4,0.2L67.9,306.9z M116.7,290.9c0,0.1,0,0.3,0,0.3h-0.1
			c-0.2,0-0.2-0.1-0.2-0.2c0-0.2,0-0.3,0.1-0.3C116.6,290.7,116.7,290.8,116.7,290.9z M116.4,278.4c-0.7,0.1-1.1,0.2-1.3,0.2
			c-0.2,0-0.4,0-0.6-0.1c0-0.3,0-0.5,0.1-0.7c0.5,0,0.9,0.1,1.1,0.2C116,278.1,116.2,278.2,116.4,278.4z M115,285.3
			c0,0.3-0.2,0.4-0.5,0.4c-0.2,0-0.5,0-0.7-0.1c-0.2,0-0.4-0.1-0.4-0.3c0-0.1,0.1-0.3,0.2-0.4h0.2h0.5
			C114.8,284.9,115,285.1,115,285.3z M115.6,263.2c0.4,0,0.6,0.1,0.6,0.3v0.1h-0.4h-0.7c-0.4,0-0.6-0.1-0.6-0.3c0.2,0,0.3,0,0.5-0.1
			C115.2,263.3,115.4,263.2,115.6,263.2z M114.2,256.2c0.2,0,0.4,0.1,0.4,0.3h-0.2h-0.5c-0.2,0-0.2-0.1-0.2-0.3h0.2H114.2z
			 M112.3,248.1c0.1-0.1,0.2-0.2,0.2-0.3c0.1,0,0.2,0,0.5,0c0.5,0,0.7,0.1,0.7,0.3c0,0.1,0,0.3-0.1,0.3c-0.1,0.1-0.2,0.2-0.5,0.2
			h-0.5h-0.2c-0.2-0.1-0.2-0.1-0.2-0.2C112.2,248.3,112.2,248.2,112.3,248.1z M112,252.8c0.4,0,0.6,0.1,0.6,0.2v0.1h-0.2l-0.1,0.1
			c0,0.1-0.1,0.1-0.4,0.1c-0.2-0.1-0.2-0.2-0.2-0.3C111.7,252.9,111.8,252.8,112,252.8z M111.7,264.6c0.1,0,0.2-0.1,0.2-0.3h0.1
			c0.2,0,0.3,0,0.3-0.1c0,0,0.1-0.1,0.2-0.1c0.2,0,0.3,0,0.4,0.1c-0.2,0.2-0.3,0.3-0.4,0.5s-0.3,0.3-0.4,0.3c-0.3,0-0.5-0.1-0.5-0.3
			C111.6,264.7,111.6,264.7,111.7,264.6z M111.8,288.5c0.2,0,0.3,0,0.4-0.1c0.1,0,0.2-0.1,0.3-0.1c0.3,0,0.5,0.1,0.5,0.3v0.2
			c-0.2,0.1-0.3,0.2-0.5,0.2c-0.6,0-0.9-0.1-1-0.2s-0.1-0.3-0.1-0.6C111.5,288.5,111.6,288.5,111.8,288.5z M110.5,283.6
			c0,0.1,0,0.3-0.1,0.3c-0.1,0.2-0.2,0.2-0.4,0.2c-0.2,0-0.4,0-0.5,0.1c-0.2,0-0.2-0.1-0.2-0.3c0-0.2,0.1-0.4,0.4-0.4
			c0.2,0,0.4-0.1,0.6-0.1C110.3,283.4,110.5,283.5,110.5,283.6z M110.2,257.8c-0.2,0.1-0.3,0.3-0.3,0.4s-0.1,0.1-0.3,0.2
			c-0.1,0-0.3-0.1-0.5-0.2s-0.5-0.2-0.7-0.4c-0.2-0.1-0.3-0.4-0.3-0.8c0-0.1,0-0.3,0.1-0.3C109.2,256.8,109.9,257.2,110.2,257.8z
			 M108,249.1c0.2,0,0.4,0.1,0.6,0.3c0,0.3-0.1,0.4-0.2,0.4c-0.3,0-0.5-0.3-0.5-0.8h0.1V249.1z M108.9,261.7c0.2,0,0.3,0,0.5,0
			s0.3,0.1,0.3,0.3v0.1c-0.5,0.2-0.9,0.5-1.3,0.8s-0.8,0.5-1.4,0.6C107.5,262.8,108.1,262.2,108.9,261.7z M102.4,246.9L102.4,246.9
			h0.6c0.1,0,0.1,0,0.1,0.1v0.1H103h-0.5c-0.1,0-0.1,0-0.1-0.1V246.9z M86.8,251.6c0.2,0,0.2,0,0.2-0.2h0.1h0.6
			c0.3,0,0.5,0.1,0.6,0.2v0.2c0,0.1-0.2,0.2-0.5,0.2h-0.7h-0.4c0-0.1,0-0.2-0.1-0.2s-0.1,0-0.1-0.1
			C86.6,251.6,86.6,251.6,86.8,251.6z M86.3,256.3c0.4-1.1,1.1-1.7,2.1-1.7h0.2c0.2-0.2,0.4-0.3,0.9-0.2c0.4,0.1,0.7,0,0.9-0.2
			c0.2,0.1,0.6,0.1,1.2,0.1c0.4,0,0.8,0,1-0.1c0.3,0,0.6-0.1,1-0.1c0.5,0,1,0,1.5,0.1s0.9,0.2,1.3,0.4c1,0,1.8,0.2,2.6,0.7
			c0.8,0.5,1.7,0.7,2.9,0.7c0.3,0,0.6-0.1,1-0.3c0.3-0.2,0.9-0.3,1.7-0.3c0.7,0,1.2,0.2,1.5,0.6c-0.2,0.2-0.4,0.4-0.8,0.4
			c-0.4,0.1-0.7,0.1-1.1,0.2s-0.7,0.2-1,0.3c-0.3,0.1-0.4,0.3-0.4,0.6c0,0.5,0.2,1,0.7,1.4c0.4,0.4,0.7,0.9,0.7,1.4
			c0,1.3-0.2,2.3-0.7,3.1c-0.4,0.8-0.8,1.7-1.2,2.8c-0.9,0.7-1.9,1.1-3.1,1.3c-1.2,0.2-2.4,0.4-3.6,0.7c-0.4,0.2-0.8,0.4-1.2,0.4
			c-0.4,0-0.8,0.1-1.2,0.1c-0.4,0-0.8,0-1.2-0.1c-0.4-0.1-0.9-0.1-1.3-0.1c-0.2,0-0.3,0-0.5,0.1c-0.2,0-0.3,0.1-0.5,0.1
			c-0.5,0-1.2-0.2-2.1-0.6s-1.3-0.9-1.3-1.5V266c0-0.5-0.1-1-0.2-1.4s-0.2-0.8-0.2-1.3c0-0.4,0-0.7,0.1-1s0.1-0.6,0.1-1
			c0-0.3-0.1-0.6-0.2-0.8c-0.1-0.3-0.2-0.5-0.2-0.8C85.7,258.5,85.9,257.4,86.3,256.3z M93.1,277.2c-0.2,0-0.4,0-0.6,0
			s-0.4-0.1-0.4-0.3c0-0.1,0.1-0.2,0.3-0.3c0.2,0,0.3-0.2,0.4-0.5c0.1,0.1,0.2,0.1,0.4,0.1c0.2,0,0.3,0,0.4-0.1
			c0.1,0,0.3-0.1,0.4-0.1c0.3,0,0.5,0.1,0.5,0.3c0,0.1,0,0.1-0.1,0.2c0,0.1-0.1,0.1-0.1,0.2C94.2,277,93.8,277.2,93.1,277.2z
			 M94.5,281c0,0.3-0.2,0.4-0.5,0.4c-0.2,0-0.3,0-0.4-0.1c-0.1,0-0.3-0.1-0.4-0.1H93c0-0.3,0.1-0.5,0.2-0.7c0.2,0.1,0.4,0.1,0.7,0.1
			C94.2,280.7,94.4,280.8,94.5,281z M88.6,282.6c-0.4-0.1-0.9-0.1-1.5-0.1s-1-0.1-1.2-0.3c0-0.2,0.2-0.3,0.7-0.3h0.6
			c0.2,0,0.4,0,0.5-0.1c0.2,0.1,0.3,0.3,0.5,0.3C88.5,282.2,88.6,282.4,88.6,282.6z M82.4,246.4c0.4-0.2,0.8-0.3,1.2-0.3
			c0.4,0,0.7,0.1,0.9,0.2c0,0.5-0.3,0.9-0.8,1s-1,0.2-1.3,0.2c-0.2,0-0.4-0.1-0.6-0.2c-0.2-0.1-0.4-0.2-0.4-0.4
			C81.6,246.8,82,246.7,82.4,246.4z M81.5,265.9c0.2,0,0.4,0,0.5,0c0.3,0,0.5,0.1,0.5,0.2l-0.1,0.2c0,0.1-0.1,0.2-0.2,0.2h-0.6h-0.1
			c-0.2,0-0.2-0.1-0.2-0.3C81.2,266,81.3,265.9,81.5,265.9z M81.2,275.1l0.5-0.2c0.2,0,0.4,0.1,0.6,0.2s0.4,0.2,0.6,0.3v0.1
			c0,0.1-0.1,0.2-0.2,0.3c-0.1,0-0.2,0.1-0.3,0.3h-0.2c-0.2,0-0.3,0-0.4,0.1c-0.1,0-0.3,0.1-0.4,0.1c-0.3,0-0.5-0.1-0.5-0.4
			C80.8,275.5,81,275.3,81.2,275.1z M80.3,278.2c0,0.1-0.1,0.2-0.4,0.2c-0.2,0-0.4,0-0.6,0.1c0-0.1-0.1-0.1-0.2-0.2
			s-0.2-0.2-0.2-0.3c0-0.1,0.1-0.1,0.2-0.2c0.2,0,0.3-0.1,0.4-0.1C79.9,277.6,80.1,277.8,80.3,278.2z M79.2,247.2c0.2,0,0.3,0,0.4,0
			s0.1,0.1,0.1,0.3c-0.3,0-0.6,0.1-0.7,0.3c-0.2,0.2-0.3,0.3-0.5,0.3s-0.4-0.1-0.5-0.3C78.1,247.4,78.5,247.2,79.2,247.2z
			 M78.4,267.2c0.2,0,0.2,0.1,0.2,0.2v0.2c0,0.2-0.1,0.2-0.4,0.2c-0.2,0-0.4-0.1-0.4-0.3C77.9,267.4,78.1,267.2,78.4,267.2z
			 M77.9,273.9l0.1-0.2v-0.1h0.1c0.2,0,0.3,0.1,0.5,0.3v0.2c0,0.2-0.1,0.3-0.4,0.3c-0.2,0-0.4,0-0.4-0.1l0.1-0.2
			c-0.2,0-0.2,0-0.2-0.1L77.9,273.9z M75.8,270.4c0.6,0,0.9,0.1,0.9,0.4c0,0.2,0,0.3,0.1,0.3c0,0.1,0.1,0.2,0.1,0.3
			c0,0.1-0.1,0.1-0.2,0.1h-0.1c0,0.1-0.1,0.1-0.4,0.1c-0.2-0.1-0.4-0.2-0.7-0.3c-0.3,0-0.4-0.2-0.4-0.6
			C75,270.5,75.3,270.4,75.8,270.4z M70.1,292.1c0-0.1,0.1-0.2,0.2-0.3c0.6,0,1.1,0.1,1.3,0.2v0.2c0,0.2-0.1,0.2-0.4,0.2h-0.7h-0.2
			C70.2,292.4,70.1,292.3,70.1,292.1z M71.3,299.1c0-0.1-0.1-0.1-0.2-0.1h-0.4v-0.1c0-0.1,0-0.1-0.1-0.2c0-0.1-0.1-0.1-0.1-0.2
			s0.1-0.1,0.2-0.1h0.2c0.2-0.2,0.5-0.3,0.9-0.3c0.2,0,0.4,0,0.6,0.1s0.5,0.2,0.9,0.2c-0.2,0.4-0.5,0.6-0.9,0.6
			C72,298.8,71.6,298.9,71.3,299.1z M74.9,306.6c-0.2,0-0.6-0.1-1.1-0.3c-0.5-0.2-0.7-0.6-0.7-1.1c0.1-0.1,0.2-0.1,0.4-0.1H74
			c0.2,0,0.3,0,0.4-0.1c0,0.1,0.2,0.2,0.6,0.5s0.8,0.5,1.1,0.6C75.7,306.5,75.3,306.6,74.9,306.6z M76.4,290.6
			c-0.1,0.1-0.2,0.2-0.5,0.2c0.1,0,0,0-0.2-0.1s-0.4-0.2-0.4-0.4l0.2-0.2c0.2,0.1,0.5,0.1,0.7,0.1s0.4,0.1,0.4,0.3
			C76.6,290.4,76.5,290.4,76.4,290.6z M76.6,286.6h-0.4c0-0.1,0.1-0.2,0.4-0.2h0.5C77,286.5,76.8,286.6,76.6,286.6z M78,303.2v-0.1
			c0-0.1,0.1-0.2,0.4-0.2c0.6,0,0.9,0.1,0.9,0.3c0,0.1-0.1,0.2-0.4,0.2c-0.2,0-0.4,0-0.6,0.1C78.1,303.4,78,303.3,78,303.2z
			 M80.3,307.2c0,0.1,0,0.1-0.1,0.2c-0.2,0.1-0.4,0.2-0.6,0.2s-0.4,0-0.6,0.1c-0.2-0.1-0.2-0.4-0.2-0.8c0.1,0,0.2,0,0.4-0.1
			c0.2,0,0.4-0.1,0.5-0.1c0.4,0,0.6,0.1,0.6,0.3C80.3,307,80.3,307.2,80.3,307.2z M80.2,295.1c-0.7-0.1-1.2-0.3-1.8-0.6
			c-0.5-0.2-0.8-0.5-0.8-0.9c0.2,0,0.3,0,0.4-0.1c0.1,0,0.3-0.1,0.4-0.1c0.4,0,1,0.1,1.7,0.3c0.7,0.2,1.4,0.3,2.1,0.4
			c0.7,0,1.3,0.2,1.7,0.6c0,0.2-0.1,0.3-0.2,0.3h-0.1c-0.2,0.1-0.4,0.2-0.9,0.2C81.8,295.3,81,295.2,80.2,295.1z M83,301.2
			c-0.2,0.2-0.4,0.3-0.6,0.4c-0.4,0-0.7-0.1-1-0.2c0-0.4,0.1-0.6,0.2-0.7s0.2-0.2,0.2-0.3c0.1,0,0.1,0,0.1,0.1c0,0,0,0.1,0.1,0.1
			c0.2,0,0.3-0.1,0.3-0.2s0.1-0.2,0.3-0.2l0.2,0.1c0,0.1,0.1,0.1,0.2,0.1h0.2C83.4,300.8,83.3,301,83,301.2z M84.4,314.1
			c0,0.1,0,0.1-0.1,0.1c-0.5,0-0.7-0.1-0.7-0.3c0-0.1,0.1-0.2,0.2-0.2c0.4,0,0.6,0.1,0.6,0.3V314.1z M84.6,305.3
			c-0.4,0-0.6-0.2-0.6-0.7c0.3-0.1,0.6-0.2,1-0.2c0.5,0,0.9,0.1,1.1,0.3C85.7,305.1,85.2,305.3,84.6,305.3z M87.1,301.1
			c0-0.1-0.1-0.2-0.4-0.2h-0.1c-0.2,0-0.4-0.1-0.4-0.3l0.1-0.1h0.1c0.2,0,0.4,0,0.6,0.1s0.3,0.2,0.5,0.3
			C87.5,301,87.3,301.1,87.1,301.1z M106,304.7l-0.4,0.3c-0.1,0.1-0.2,0.1-0.2,0.1c-0.4,0-0.8-0.1-1.2-0.3s-0.5-0.5-0.5-0.9
			c0.2-0.1,0.4-0.1,0.9-0.1c0.2,0.1,0.3,0.3,0.5,0.3c0.2,0.1,0.5,0.3,1,0.4v0.2H106z M107.3,294.3c-0.2,0.7-0.6,1.5-1.1,2.2
			s-1,1.3-1.6,1.8s-1.3,0.8-2,0.9c-0.2,0.2-0.6,0.3-1,0.3s-0.8,0-1,0.1h-0.7c-1.5,0-2.8,0.2-4.1,0.6c-1.3,0.4-3,0.6-5.1,0.6
			c-0.7,0-1.2-0.1-1.7-0.2s-0.9-0.4-1.1-0.8c-0.2-0.6-0.5-1.2-1-1.8c-0.5-0.6-0.7-1.2-0.7-1.9c0,0.1,0-0.1,0-0.4
			c0-0.4,0-0.8,0.1-1.3s0.1-1.1,0.2-1.6c0-0.6,0.1-1,0.3-1.3c0-0.3-0.1-0.6-0.2-0.9c-0.2-0.3-0.2-0.6-0.2-0.9c0-0.2,0.1-0.4,0.4-0.7
			c0.2-0.6,0.2-1.3,0.2-2.1c0-0.8,0.3-1.2,1.2-1.4c0.6,0,1.2-0.1,1.8-0.3c0.5-0.2,1.1-0.3,1.8-0.3h0.5H93c1.4,0,2.7,0.2,4,0.4
			c1.3,0.3,2.6,0.4,4,0.4c0.3,0,0.8-0.1,1.3-0.3c0.6-0.2,1.1-0.3,1.7-0.3c0.4,0,0.8,0.1,1.1,0.4c-0.1,0.1-0.2,0.3-0.5,0.3
			c-0.2,0.1-0.4,0.2-0.6,0.4c0.2,0.6,0.4,1.1,0.9,1.4c0.4,0.4,0.8,0.7,1.2,1.1c0.4,0.4,0.8,0.8,1,1.3c0.3,0.5,0.4,1.2,0.4,2.1
			C107.7,292.9,107.5,293.5,107.3,294.3z M108.9,279.1c0.2,0.1,0.4,0.2,0.5,0.4h0.1c0.2,0,0.3,0.1,0.3,0.2s0.1,0.3,0.3,0.3
			c-0.2,0.2-0.3,0.2-0.5,0.2s-0.3,0-0.5,0.1c-0.2-0.2-0.5-0.4-0.7-0.6c-0.2-0.1-0.4-0.4-0.4-0.8C108.5,278.9,108.7,279,108.9,279.1z
			 M109.5,305.7c0,0.1,0,0.1-0.1,0.1c-0.6,0-0.9-0.3-1.1-0.9h0.2c0.3,0,0.6,0.1,1,0.4V305.7z M110.7,301.1h-0.5H110
			c-0.1-0.3-0.2-0.4-0.5-0.3c-0.2,0.1-0.4,0-0.6-0.3c0.2-0.2,0.6-0.3,1-0.3c0.5,0,0.9,0.1,1.1,0.3c0,0.1,0,0.1,0.1,0.2
			c0,0,0.1,0.1,0.1,0.2C111.1,301,111,301.1,110.7,301.1z M113.6,294.4c-0.7,0-1.2-0.2-1.5-0.5c-0.4-0.3-0.7-0.7-1-1.1h0.4
			c0.2,0,0.3,0,0.4-0.1h0.4c0.4,0,0.8,0,1-0.1c0.3-0.1,0.6-0.1,0.9-0.1c0.2,0,0.5,0.1,0.9,0.2v0.9c0,0.4-0.1,0.6-0.4,0.7
			C114.3,294.4,114,294.4,113.6,294.4z M117.3,300.9c0,0.1-0.2,0.3-0.5,0.6c-0.3,0.2-0.6,0.3-0.8,0.3c0,0-0.2,0-0.6-0.1
			c-0.6-0.1-0.9-0.2-1.1-0.3v-0.1V301l0.1-0.1l0.2,0.1c0.6-0.3,1.3-0.4,1.8-0.4C116.8,300.6,117.1,300.7,117.3,300.9L117.3,300.9z
			 M120.8,293.7c-0.3,0-0.8,0-1.3-0.1c-0.6-0.1-0.9-0.3-0.9-0.7c0-0.1,0.2-0.3,0.6-0.3c0.4-0.1,0.7-0.1,0.9-0.1
			c0.2,0,0.6,0.1,1.1,0.2s0.7,0.3,0.7,0.6C121.6,293.6,121.2,293.7,120.8,293.7z"/>
		<path class="st1" d="M230.3,253.1c-0.2-2-0.3-4-0.2-6.1s0-4.2-0.1-6.2c0-0.1,0-0.3,0.1-0.4c0-0.1,0.1-0.2,0.1-0.4
			c0-0.8-0.2-1.4-0.7-1.8c-0.5-0.4-0.9-0.9-1.3-1.4c-0.2-0.2-1.1-0.4-2.9-0.6c-1.8-0.2-3.6-0.3-5.7-0.3c-0.7,0-1.3,0.1-2,0.2
			c-0.6,0.1-1.3,0.2-1.9,0.2c-1.2,0-2.3-0.1-3.3-0.2c-1-0.1-2-0.2-3.2-0.2H208c-0.5,0.4-1,0.6-1.6,0.8s-1.2,0.4-1.6,0.7
			c-0.5,0.3-0.9,0.7-1.2,1.3s-0.5,1.6-0.5,2.9c0,0.2,0,0.6,0.1,1.1s0.2,0.9,0.4,1v0.2c0,0.8-0.1,1.6-0.2,2.3
			c-0.2,0.7-0.2,1.4-0.2,2.1c0,0.4,0,0.8,0.1,1.2s0.1,0.8,0.1,1.2c0,0.5,0,1-0.1,1.5s-0.1,1-0.1,1.6c0,0.2,0,0.6,0.1,1.1
			s0.2,0.9,0.4,1v0.2c0,0.4-0.1,0.7-0.2,1.1c-0.2,0.3-0.2,0.7-0.2,1.1c0,0.3,0.1,0.6,0.2,0.8c0.2,0.3,0.2,0.6,0.2,0.9
			c0,0.6-0.1,1-0.4,1.3c0.2,1.5,0.2,3,0.1,4.7c-0.1,1.6,0,3.2,0.1,4.6c0,0.4-0.1,0.9-0.2,1.3c-0.1,0.4-0.2,0.8-0.2,1.3
			c0,0.1,0.1,0.4,0.2,0.9c-0.2,0.7-0.2,1.4-0.2,2.1c0,0.6,0.1,1.1,0.2,1.5c0.2,0.4,0.2,0.7,0.2,0.9c0,0.2-0.1,0.4-0.2,0.6
			c-0.1,0.2-0.2,0.3-0.2,0.4c0.1,0.2,0.1,0.4,0.2,0.6c0,0.2,0.1,0.4,0.1,0.6c0,0.5-0.1,1-0.2,1.5c-0.1,0.5-0.2,0.9-0.2,1.4
			c0,0.4,0.1,0.7,0.3,1.1c0.2,0.3,0.3,0.7,0.3,0.9c0,0.5-0.2,1-0.5,1.3c-0.3,0.4-0.5,0.7-0.5,1.1c0,0.2,0,0.5,0.1,0.7
			c0.1,0.3,0.1,0.5,0.1,0.8c0,0.2-0.1,0.8-0.4,1.8c-0.3,1-0.5,1.7-0.8,2.1c-0.4,0.5-0.8,1-1.1,1.6c-0.3,0.5-0.6,1.1-0.9,1.7
			c-0.4,0.7-1,1.1-1.8,1.4s-1.6,0.5-2.4,0.8c-1.4,0.9-3.1,1.3-5.2,1.3c-0.3,0-0.7,0-1,0s-0.7,0-1-0.1h-0.4c-0.7,0-1.2-0.1-1.8-0.2
			c-0.5-0.1-1-0.3-1.5-0.4c-1.1-0.5-2.3-1-3.5-1.3c-1.2-0.4-2.2-1.2-3-2.4c-0.7-0.4-1.1-1-1.1-1.9s-0.2-1.7-0.5-2.3v-0.6
			c0-0.7-0.1-1.4-0.2-1.9c-0.2-0.6-0.3-1.2-0.5-1.8c0.2-0.3,0.2-0.6,0.2-0.8c0-0.4-0.1-0.7-0.2-1c-0.1-0.3-0.2-0.6-0.2-0.8
			c0-0.3,0.1-0.6,0.2-0.9c0.1-0.3,0.2-0.7,0.2-1.1c0-0.7-0.1-1.4-0.4-1.9c-0.2-0.5-0.4-1.1-0.4-1.7c0-0.3,0.1-0.6,0.2-1
			c0.1-0.4,0.2-0.9,0.2-1.4c0-0.4-0.1-0.7-0.3-1s-0.3-0.5-0.3-0.7c0-0.4,0.1-0.8,0.2-1.2c0.2-0.4,0.2-0.8,0.2-1.2
			c0-0.4-0.1-0.8-0.2-1.1c-0.2-0.3-0.2-0.6-0.2-0.9c0-0.4,0.1-0.9,0.3-1.2c0.2-0.4,0.3-0.8,0.3-1.2c0-0.4,0-0.6-0.1-0.8
			c0-0.1,0-0.3,0.1-0.5c0-0.2,0.1-0.4,0.1-0.5c0-0.7-0.1-1.4-0.2-2.1c-0.2-0.7-0.2-1.4-0.2-2.1c0.2-0.2,0.3-0.5,0.3-0.8
			s0.1-0.7,0.1-1.1s0-0.9-0.1-1.3s-0.1-0.8-0.1-1.1c0-0.3,0.1-0.6,0.2-0.8c0.1-0.3,0.2-0.5,0.2-0.8s-0.1-0.6-0.2-0.9
			c-0.2-0.3-0.2-0.6-0.2-0.9c0-0.4,0.1-0.9,0.2-1.3c0.2-0.4,0.2-0.9,0.2-1.4c0-0.4-0.1-0.8-0.2-1.2c-0.1-0.4-0.2-0.8-0.2-1.2
			c0-0.6,0.1-1.1,0.2-1.7c0.1-0.5,0.2-1.1,0.2-1.7c0-0.4-0.1-0.7-0.2-1c-0.1-0.3-0.2-0.6-0.2-0.9c0-0.3,0.1-0.6,0.2-0.9
			c0.1-0.3,0.2-0.6,0.2-1c0-2.3-0.3-3.9-1-4.7s-1.5-1.3-2.4-1.4c-1-0.1-2-0.2-3.2-0.1c-1.1,0.1-2.2,0-3-0.4c-0.2,0-0.3,0-0.5-0.1
			c-0.2,0-0.3-0.1-0.5-0.1c-1.3,0-2.5,0.1-3.7,0.2c-1.1,0.1-2.4,0.2-3.9,0.2c-0.5,0-1.2,0-2.1-0.1c-0.9,0-1.9,0-2.8,0.2
			c-0.9,0.2-1.8,0.5-2.5,0.9s-1.1,1.1-1.1,2c0,0.2,0.1,0.5,0.2,0.8c0.2,0.3,0.2,0.6,0.2,1s0,0.9-0.1,1.4s-0.1,1-0.1,1.5
			c0,0.4,0,0.7,0.1,0.9l0.2,0.1c-0.2,0.4-0.3,0.9-0.5,1.4s-0.2,1-0.2,1.5c0,0.4,0,0.7,0.1,0.9c-0.1,0.2-0.1,0.5-0.1,0.8s0,0.6,0,0.9
			c0,0.4,0,0.7,0,1s0,0.6,0.1,0.8l0.1,0.1c-0.2,0.1-0.2,0.4-0.2,0.8c0,0.4,0,0.7-0.2,0.9c0,1,0,1.9,0.1,2.9c0.1,1,0.1,2,0.1,3.1
			c0,0.5,0,1-0.1,1.4s-0.1,1-0.1,1.6c0,0.4,0,0.7,0.1,1.1c0,0.4,0.1,0.7,0.3,1c-0.2,0.4-0.3,1.1-0.4,2.1c-0.1,0.9-0.1,1.7-0.1,2.2
			s0.1,1,0.2,1.4c0.1,0.4,0.2,0.9,0.2,1.3c0,0.3,0,0.6-0.1,0.9c0,0.3-0.1,0.7-0.1,1.2c0,0.6,0,1.1,0.1,1.6s0.1,0.9,0.1,1.4
			c0,0.6-0.1,1.2-0.2,1.8c-0.2,0.6-0.2,1.2-0.2,1.8c0,0.4,0.1,0.9,0.2,1.3c0.1,0.4,0.2,0.8,0.3,1.2c-0.2,0.4-0.3,0.7-0.4,1.1
			c-0.1,0.4-0.1,0.7-0.1,1.1c0,0.7,0.2,1.2,0.5,1.6c-0.2,0.6-0.2,1.2-0.2,1.9c0,0.7,0,1.3-0.1,2l0.7,1.3c-0.2,0.3-0.2,0.7-0.2,1.3
			c0,0.7,0.1,1.4,0.4,2c0.2,0.6,0.4,1.3,0.4,2c-0.1,0.1-0.1,0.4-0.1,0.7c0,0.8,0.2,1.5,0.6,2c0.4,0.5,0.7,1,1,1.6v0.4
			c0,0.5,0.1,0.9,0.3,1.3c0.2,0.3,0.4,0.6,0.7,0.9c0.2,0.3,0.5,0.6,0.7,0.9s0.3,0.7,0.3,1.2c0,0.4,0.4,0.9,1.2,1.6s1.3,1.3,1.5,1.7
			c0.2,0.7,0.5,1.2,0.9,1.6s1,0.7,1.5,0.9c0.6,0.3,1.1,0.5,1.6,0.8s0.9,0.7,1.1,1.2c0.4,0.6,0.9,1,1.6,1.2c0.6,0.2,1.3,0.4,2,0.5
			c1,0.4,2,0.8,2.9,1.2c1,0.4,2,0.8,3,1.1c1,0,1.8,0.2,2.5,0.7s1.6,0.7,2.6,0.7c0.5,0,0.9,0,1.1-0.1c0.2,0.1,0.4,0.1,0.7,0.1h1
			c0.5,0,1,0.1,1.5,0.4s1,0.4,1.4,0.4c0.3,0,0.6-0.1,1-0.2c0.3-0.1,0.7-0.2,1.1-0.2c1.1,0,2.1,0.1,3.1,0.2s2.1,0.2,3.2,0.2
			c0.8,0,1.4,0,1.8-0.1c0.4,0.1,1,0.1,1.8,0.1c0.9,0,1.8-0.1,2.8-0.2s2-0.3,2.9-0.4c0.6-0.1,1.3-0.2,2.1-0.1
			c0.7,0.1,1.3-0.1,1.7-0.4c0.2,0,0.3,0,0.4,0.1c0.1,0,0.3,0.1,0.4,0.1c1.1,0,2-0.2,2.7-0.6c0.8-0.4,1.6-0.6,2.5-0.8
			c0.8,0,1.4-0.2,1.8-0.6c0.4-0.4,0.9-0.6,1.5-0.7c2.3-0.5,4.1-1.7,5.6-3.4c0.9-0.4,1.7-0.9,2.5-1.7c0.8-0.8,1.4-1.6,2-2.4
			c0.9-0.3,1.4-0.8,1.6-1.6c0.2-0.7,0.6-1.4,1.3-2c0.2-0.2,0.4-0.5,0.5-0.9s0.1-0.8,0.2-1.2c0-0.4,0.1-0.7,0.2-1.1
			c0.1-0.4,0.3-0.7,0.7-0.9c0.1-0.2,0.2-0.5,0.3-0.9s0.2-0.8,0.4-1.2c0.1-0.4,0.3-0.9,0.4-1.4c0-0.2,0-0.4-0.1-0.6s-0.1-0.4-0.1-0.6
			c0-0.4,0.1-0.8,0.4-1.4c0.2-0.6,0.4-1.1,0.4-1.7c0-0.2-0.1-0.5-0.2-0.7c-0.1-0.3-0.2-0.4-0.2-0.5s0.1-0.5,0.4-1
			c0.2-0.5,0.4-1,0.4-1.6c0-0.4,0-0.9-0.1-1.4c0-0.5-0.1-0.9-0.1-1.4c0-0.3,0-0.6,0.1-0.8c0.1-0.2,0.1-0.4,0.1-0.7
			c0-0.4-0.1-0.8-0.2-1.2c-0.1-0.4-0.2-0.9-0.2-1.2c0.4-0.6,0.7-1.5,0.8-2.7s0.2-2.2,0.2-2.8c0-0.4-0.1-0.8-0.2-1.2
			c-0.2-0.3-0.2-0.7-0.2-1.2c0-0.3,0-0.6,0.1-0.9s0.1-0.7,0.1-1.2c0-0.3-0.1-0.6-0.2-0.9v-0.1v-0.7c0-0.2,0.1-0.6,0.2-1
			c0.1-0.4,0.2-0.9,0.2-1.3c0-0.7-0.2-1.3-0.5-1.6c0.1-0.8,0.2-1.7,0.4-2.6s0.2-1.8,0.2-2.7c0-0.5,0-1-0.1-1.4s-0.2-0.9-0.4-1.3
			c0-0.6,0.1-1,0.2-1.3c0.1-0.3,0.2-0.6,0.2-0.9c0-0.4-0.1-0.8-0.2-1.2c-0.1-0.3-0.2-0.7-0.2-1.1c0-0.1,0.1-0.4,0.3-0.9
			C230,253.9,230.2,253.5,230.3,253.1z M158.4,266.4c-0.1,0-0.1,0-0.2-0.1c0,0-0.1-0.1-0.3-0.1c-0.1,0-0.1,0-0.2,0.1
			c0,0-0.1,0.1-0.2,0.1c-0.2-0.1-0.4-0.3-0.6-0.3c-0.2-0.1-0.4-0.3-0.4-0.6c0-0.1,0.1-0.2,0.4-0.2h0.4h0.2c0,0.1,0.2,0.2,0.5,0.4
			c0.3,0.2,0.6,0.4,0.7,0.5C158.6,266.3,158.5,266.4,158.4,266.4z M162.2,267.1c-0.2,0-0.4-0.1-0.7-0.2s-0.5-0.4-0.5-0.8
			c0.6,0,1.1,0.2,1.3,0.6c0,0.1,0,0.2,0.1,0.2C162.4,267.1,162.3,267.1,162.2,267.1z M165.1,289.9c0,0.1-0.1,0.3-0.2,0.4
			c-0.2,0.1-0.3,0.2-0.4,0.2c-0.2,0-0.4-0.1-0.4-0.4s0.2-0.4,0.5-0.4S165.1,289.7,165.1,289.9L165.1,289.9L165.1,289.9z
			 M166.1,255.2c-0.3,0-0.7-0.1-1-0.2c-0.4-0.1-0.6-0.3-0.7-0.6c0-0.4,0.2-0.5,0.6-0.4c0.4,0.1,0.7,0,1-0.1c0,0.1,0.1,0.2,0.2,0.2
			c0.1,0,0.1,0,0.2-0.1c0,0,0.1-0.1,0.2-0.1c0.2,0,0.2,0.1,0.2,0.2v0.2c0.2,0,0.2,0.1,0.2,0.4C166.6,255.1,166.3,255.2,166.1,255.2z
			 M168.9,262.5c-0.6,0-0.9-0.1-0.9-0.2s0.2-0.2,0.6-0.2c0.2,0,0.2,0.1,0.2,0.2L168.9,262.5L168.9,262.5z M173.5,301.7
			c-0.6,0-0.9-0.1-0.9-0.2s0.1-0.2,0.4-0.2s0.4-0.1,0.4-0.2h0.2c0.1,0,0.1,0,0.1,0.1s0.1,0.1,0.2,0.1
			C174,301.6,173.8,301.7,173.5,301.7z M179,306.5c0,0.1,0,0.2-0.1,0.2s-0.1,0.1-0.1,0.2h-0.2c-0.2,0-0.3,0-0.4,0.1
			c-0.1,0-0.2,0.1-0.4,0.1s-0.3-0.1-0.4-0.3c-0.1-0.2-0.2-0.4-0.2-0.5c0.3-0.1,0.6-0.2,1-0.2s0.7,0.1,0.9,0.3v0.1H179z M205,301.7
			c-0.3,0-0.7,0.1-1,0.1c-0.7,0-1.1-0.1-1.5-0.4c0.3-0.3,0.7-0.4,1.1-0.4c0-0.1,0.1-0.1,0.4,0c0.2,0.1,0.9,0.3,1.8,0.8
			C205.6,301.6,205.3,301.6,205,301.7z M209.5,279.3c0,0,0-0.1,0.1-0.1c0.2,0,0.3,0.1,0.4,0.2c0.1,0.1,0.2,0.2,0.4,0.4
			c-0.1,0.1-0.2,0.1-0.5,0.1s-0.5-0.2-0.5-0.6C209.4,279.4,209.5,279.4,209.5,279.3z M210.1,300.6H210c-0.2,0-0.3,0-0.4,0.1
			c-0.1,0.1-0.3,0.1-0.4,0.1c0.1,0,0,0-0.3-0.1s-0.5-0.2-0.5-0.3c0.1-0.1,0.2-0.4,0.4-0.6c0.2-0.3,0.6-0.4,1.2-0.4
			c0.4,0,0.6,0,0.7,0.1c0,0.1,0,0.1,0.1,0.2c0,0.1,0.1,0.1,0.1,0.2C210.7,300.3,210.5,300.5,210.1,300.6z M210.3,296.1
			c-0.4,0.2-0.8,0.3-1.2,0.3c-0.2,0-0.4,0-0.7-0.1s-0.4-0.3-0.4-0.6c0.2-0.4,0.6-0.6,1-0.6s0.9-0.1,1.3-0.2c0,0.1,0,0.1,0.1,0.1h0.4
			h0.1C210.9,295.6,210.7,295.9,210.3,296.1z M213.1,298.8c0-0.1,0-0.3,0-0.4s0.1-0.2,0.4-0.2c0.2,0,0.3,0,0.3,0.1
			c0,0,0.1,0.1,0.3,0.2C214,298.7,213.7,298.8,213.1,298.8z M216.8,262.1c-0.3,0-0.6,0-0.7,0.1V262c0-0.1,0-0.2,0.1-0.2
			s0.1-0.1,0.1-0.2h0.2h0.6c0.2,0,0.2,0.1,0.2,0.2C217.3,262,217.1,262.1,216.8,262.1z M217.9,266.4c0-0.1-0.1-0.1-0.2-0.2
			c-0.1-0.1-0.2-0.2-0.2-0.3l0.2-0.2c0.2,0.1,0.6,0.1,0.9,0.1c0.4,0,0.6,0.1,0.7,0.3c0,0.4-0.2,0.5-0.5,0.4
			C218.5,266.2,218.2,266.2,217.9,266.4z M220.1,275.6c-0.4,0.1-0.9,0.2-1.3,0.2c-0.4,0-0.6-0.1-0.6-0.3c0-0.4,0.2-0.7,0.7-0.7
			c0.4,0,0.8-0.1,1.2-0.3c0,0.1,0,0.2,0.1,0.2h0.2c0.1,0,0.1,0,0.1-0.1c0,0,0-0.1,0.1-0.1s0.1,0.1,0.1,0.2s0.1,0.2,0.2,0.3
			C220.9,275.3,220.6,275.5,220.1,275.6z M221.2,256.2c0,0.1,0,0.1-0.1,0.1c-0.1,0.1-0.2,0.1-0.5,0.1H220h-0.1c0-0.1,0-0.1-0.1-0.2
			c0-0.1,0.1-0.3,0.3-0.4c0.2-0.1,0.4-0.2,0.5-0.2s0.4,0.1,0.6,0.3V256.2z"/>
		<path class="st1" d="M337.1,247c0-0.3-0.1-0.7-0.2-1.1c-0.1-0.2-0.2-0.4-0.2-0.6c0-0.2,0-0.5,0.1-0.8s0.1-0.6,0.1-0.9
			c0-0.4,0-0.7-0.1-1s-0.1-0.5-0.1-0.7c0-0.1,0-0.3,0.1-0.8c0.1-0.4,0.1-0.9,0.1-1.3c0-1.1-0.3-1.9-1-2.2c-0.7-0.4-1-0.8-1.1-1.2
			c-0.4-0.4-1-0.5-1.8-0.4s-1.4,0-1.9-0.3H330h-4c-0.6,0-1.1,0-1.6,0s-1,0.1-1.5,0.2c-1.4-0.2-2.9-0.3-4.5-0.3c-0.7,0-1.5,0-2.4,0.1
			s-1.7,0.2-2.4,0.3c-0.7,0.1-1.3,0.4-1.8,0.7s-0.7,0.7-0.7,1.2c0,0.2,0,0.3,0.1,0.3c0,0.8-0.1,1.6-0.2,2.4
			c-0.1,0.8-0.2,1.6-0.2,2.4c0,0.7,0.1,1.4,0.4,2.1c-0.2,0.8-0.3,1.8-0.4,3s-0.1,2.3-0.1,3.3c0,1.2,0.2,2.2,0.7,2.9
			c-0.2,1.4-0.2,2.9-0.2,4.3c0,1.5,0,3,0,4.5c0,0.7,0.1,1.3,0.4,1.7c0.2,0.4,0.4,0.9,0.4,1.5c0,0.4,0,0.7-0.1,1.1
			c0,0.3-0.1,0.7-0.1,1.1c0,0.1,0,0.3,0.1,0.4c0,0.1,0.1,0.2,0.1,0.4c-0.1,0.3-0.1,0.6-0.1,0.9s0,0.6,0,1s0,0.7,0,1.1s0,0.7,0.1,1
			c-0.1,0.4-0.1,0.7-0.1,1.1c0,0.3,0,0.7,0,1.1c0,0.7,0,1.7-0.1,2.8c0,1.1,0.1,2,0.5,2.6c-0.4,0.2-0.7,0.5-0.9,0.9
			c-0.2,0.4-0.6,0.6-1.2,0.6c-1.1,0-1.8-0.4-2.1-1.2c-0.3-0.8-0.7-1.5-1.2-2.1c-0.2-0.4-0.5-0.9-1-1.5s-1-1.1-1.5-1.7
			s-1-1.1-1.5-1.8c-0.4-0.6-0.7-1.3-0.7-1.9c-0.5-0.3-1-0.7-1.5-1.2s-1-1.1-1.4-1.6c-0.4-0.6-0.8-1-1-1.4s-0.4-0.6-0.4-0.7V267
			c-0.3-0.4-0.8-0.8-1.3-1.2c-0.5-0.4-0.8-0.8-0.9-1.2c-0.3-0.7-0.8-1.4-1.4-1.9s-1-1.1-1.2-1.9c-0.3-1.3-1-2.3-2.1-3.1
			s-1.9-1.6-2.5-2.5c-0.3-1.3-1-2.3-2-3s-1.8-1.7-2.3-2.8c0-0.1-0.3-0.6-1-1.4c-0.7-0.8-1.2-1.4-1.5-1.9c-0.7-0.3-1.1-0.8-1.5-1.6
			c-0.3-0.8-0.7-1.5-1.1-2.1c-0.8-0.6-1.5-1.3-2-2.1s-1.1-1.5-1.6-2.3c-0.4-0.1-0.7-0.2-0.9-0.5c-0.2-0.3-0.4-0.5-0.7-0.8
			c-0.2-0.3-0.5-0.5-0.9-0.7c-0.3-0.2-0.8-0.3-1.5-0.3c-0.4,0-0.8,0-1.2,0.1c-0.4,0-0.9,0.1-1.3,0.1c-0.7,0-1.3-0.1-2.1-0.2
			c-0.7-0.1-1.5-0.2-2.2-0.2c-0.6,0-1.1,0-1.5,0.1c-0.3,0.1-0.8,0.1-1.5,0.1s-1.4-0.1-2.1-0.2c-0.7-0.1-1.4-0.2-2.1-0.2
			c-0.6,0-1,0.1-1.2,0.3h-2.7c-2.1,0-3.7,0.4-4.7,1.3c-1,0.9-1.5,2-1.5,3.2c0,0.4,0.1,0.8,0.2,1.1c0.2,0.3,0.2,0.7,0.2,1.1
			c0,0.4-0.1,0.7-0.2,1.1c-0.1,0.3-0.2,0.7-0.2,1.1c0,0.2,0,0.3,0.1,0.6c0.1,0.2,0.1,0.4,0.1,0.6c0,0.1,0,0.1-0.1,0.2
			c0,0-0.1,0.1-0.1,0.3c0,0.1,0.1,0.2,0.2,0.3c-0.2,1-0.4,2-0.4,3c0,0.6,0.1,1.2,0.2,1.7c0.1,0.5,0.2,1.2,0.2,1.9
			c0,0.4-0.1,0.7-0.2,0.9c-0.1,0.2-0.2,0.9-0.2,1.9s0.1,2.1,0.2,3.1s0.2,2,0.2,3.1c0,0.9-0.1,1.8-0.3,2.7c-0.2,0.9-0.3,1.8-0.3,2.7
			c0,0.1,0.1,0.4,0.2,0.9c-0.2,1-0.3,2.1-0.3,3.3c0,1.2-0.1,2.2-0.1,3.1c0.2,0.2,0.2,0.6,0.2,1s-0.1,0.7-0.2,1
			c-0.1,0.3-0.2,0.7-0.2,1.1c0,0.2,0,0.5,0.1,0.7c0.1,0.3,0.1,0.5,0.1,0.7c0,0.4,0,0.7-0.1,1s-0.1,0.6-0.1,0.9s0.1,0.6,0.2,0.8
			c0.2,0.3,0.2,0.5,0.2,0.8c0,0.4-0.1,0.7-0.2,1.1c-0.2,0.4-0.2,0.8-0.2,1.2c0,0.4,0.1,0.7,0.2,0.9c-0.1,0.4-0.1,0.9-0.1,1.7
			c0,0.7,0.1,1.2,0.4,1.6c0.3,0.4,0.4,0.9,0.4,1.5c0,0.3-0.1,0.6-0.4,0.8c0,0.7,0,1.6,0.1,2.6c0,1,0.1,1.9,0.2,2.7
			c0,0.6-0.1,1.2-0.2,1.9c-0.2,0.7-0.2,1.3-0.2,2c0,0.6,0.1,1.2,0.3,1.7c0.2,0.6,0.3,1.1,0.3,1.7c0,1-0.1,2-0.3,2.9
			s-0.3,1.8-0.3,2.8c0,0.4,0.1,0.7,0.2,1.1c0.1,0.4,0.2,0.7,0.2,1.1c0,0.2,0,0.2-0.1,0.3c0,0-0.1,0.1-0.1,0.3c0,0.2,0,0.3,0.1,0.4
			s0.1,0.2,0.1,0.4c0,0.2,0,0.4-0.1,0.6s-0.2,0.4-0.2,0.5c0.1,0.8,0.5,1.7,1.2,2.6s1.5,1.4,2.4,1.4c0.3,0,0.7-0.1,1-0.2
			c0.4-0.1,0.7-0.2,1-0.2c2.1,0.1,4.4,0.2,6.8,0.1s4.7,0,6.8,0.1c0.8-0.2,1.6-0.4,2.4-0.4c0.8-0.1,1.5-0.2,2.3-0.3
			c0.3-0.4,0.8-0.8,1.3-1.2c0.5-0.4,0.8-0.9,0.8-1.5c0-0.4,0-0.7-0.1-1.1s-0.1-0.7-0.1-1.1s0-0.8,0.1-1.2c0-0.4,0.1-0.9,0.1-1.2
			c0-0.7,0-1.2-0.1-1.6c0-0.6,0.1-1.1,0.2-1.7c0.1-0.5,0.2-1.1,0.2-1.7c0-0.2,0-0.4-0.1-0.7c-0.1-0.2-0.1-0.4-0.1-0.7v-0.4
			c0-0.2-0.1-0.4-0.2-0.6v-0.6v-1.6c0-0.7,0.1-1.2,0.4-1.7c0.2-0.4,0.4-0.9,0.4-1.3c0-0.6-0.1-1.1-0.2-1.6c-0.2-0.5-0.2-0.9-0.2-1.4
			c0-0.4,0.1-0.7,0.3-1c0.2-0.3,0.3-0.7,0.3-1.3c0-0.5-0.1-0.9-0.2-1c0-1,0-2-0.1-2.8c0-0.8-0.2-1.6-0.4-2.4
			c0.1-0.4,0.1-0.9,0.1-1.4s0-1,0-1.6c0-0.5,0-1,0-1.6c0-0.5,0-1-0.1-1.6c0.1-0.4,0.1-0.7,0.1-1.1s0-0.8,0-1.2c0-0.4,0-0.8,0-1.2
			c0-0.4,0-0.9-0.1-1.2l-0.1-0.2c0.1-0.7,0.3-1.2,0.5-1.6c0.3-0.4,0.5-0.9,0.7-1.4c-0.2-0.2-0.4-0.3-0.9-0.3h-0.9h-0.5
			c-0.3,0.7-0.9,1.1-1.7,1.3c-0.8,0.2-1.6,0.4-2.4,0.6c-0.5,0-0.9,0.2-1.2,0.6c-0.3,0.4-0.6,0.6-1,0.6c-0.2,0-0.4-0.1-0.6-0.2
			s-0.4-0.4-0.4-0.8c0.5-0.4,1.1-0.7,1.8-0.7h0.5c0.3-0.6,0.9-1,1.6-1.3s1.3-0.4,1.7-0.4h0.5c0.6-0.1,1-0.5,0.9-1.1
			c0-0.6,0.2-1,0.7-1.2c0.4,0.2,0.7,0.5,1,0.8c0.2,0.2,0.6,0.4,1.1,0.5s1,0.2,1.5,0.3c0.5,0.1,0.9,0.2,1.3,0.2
			c0.4,0.1,0.5,0.2,0.5,0.4c-0.1,0.4-0.3,0.6-0.7,0.6c-0.4,0-0.7,0.2-0.9,0.5c0.1,0.3,0.2,0.6,0.2,0.8c0.1,0.3,0.2,0.5,0.4,0.8
			c0.5,0.1,0.8,0.2,1,0.5s0.4,0.6,0.5,0.9c0.2,0.3,0.3,0.7,0.4,1s0.3,0.6,0.7,0.8c1.2,0.6,1.8,1.3,1.8,2.2c0.2,0.4,0.5,0.7,0.9,1
			s0.8,0.7,1,1.1c0.2,0.6,0.6,1.1,1,1.6c0.4,0.4,0.9,0.9,1.3,1.3c0.4,0.2,0.6,0.4,0.6,0.7c0,0.3,0.2,0.5,0.5,0.7
			c0.2,0.7,0.5,1.2,1.1,1.5s1,0.8,1.3,1.4c0,0.4,0.2,0.8,0.5,1.2c0.3,0.3,0.7,0.7,1.1,1s0.8,0.7,1.2,1c0.4,0.3,0.6,0.7,0.7,1.2
			c0.2,0.7,0.5,1.2,1.1,1.5s0.9,0.9,1.1,1.6c0.8,0.4,1.3,0.9,1.3,1.6c0.1,0.7,0.4,1.2,1,1.7c0.6,0.2,1,0.5,1.3,0.9s0.6,0.8,0.8,1.3
			c0.2,0.4,0.4,0.9,0.7,1.3c0.3,0.4,0.7,0.8,1.3,1c0.5,0.7,1.2,1.8,2,3.1c0.9,1.3,2.1,2.7,3.6,4.1c0.2,0.7,0.5,1.2,1,1.5
			s0.9,0.8,1.2,1.4c0.3,0.7,0.8,1.2,1.5,1.7c0.7,0.4,1.5,0.8,2.3,1.1c0.9,0.3,1.7,0.5,2.6,0.6s1.7,0.2,2.3,0.2
			c1.1,0,2.3-0.1,3.4-0.2s2.2-0.2,3.4-0.2c0.9,0,1.7,0.1,2.6,0.2c0.8,0.1,1.7,0.2,2.6,0.2h2.3h0.9c1-0.4,1.8-1,2.5-1.8s1-1.6,1-2.4
			c0-0.5,0-1-0.1-1.5c0-0.5-0.1-1-0.1-1.6c0-0.4,0-0.8,0.1-1.1c-0.1-0.2-0.1-0.6-0.1-1c0-0.6,0.1-1.2,0.2-1.8
			c0.1-0.6,0.2-1.2,0.2-1.8c0-0.1,0-0.3-0.1-0.5c0-0.2-0.1-0.4-0.1-0.5c0.2-0.3,0.4-0.6,0.4-1s0-0.7-0.1-1s-0.1-0.6-0.1-1
			s0-0.8,0.1-1.3s0.1-1,0.1-1.5c0-0.9,0-1.8-0.1-2.6c0-0.9-0.1-1.7-0.1-2.6c0-0.7,0.1-1.3,0.2-1.9s0.2-1.2,0.2-1.9
			c0-0.4-0.1-0.8-0.2-1.1v-2v-4.1v-0.7c0-0.4,0-0.8-0.1-1.2c0-0.4-0.1-0.8-0.1-1.2c0-0.4,0-0.7,0.1-1.1c0-0.4,0.1-0.8,0.1-1.2
			c0-0.4,0-0.7,0-1s-0.1-0.6-0.2-0.9c0.2-0.6,0.2-1.2,0.2-1.9c0-0.7,0-1.4,0-2.2c0-0.8,0-1.7-0.1-2.6s-0.1-1.8-0.1-2.6
			c0-0.3,0-0.6,0.1-0.9s0.1-0.6,0.1-1s-0.1-0.8-0.2-1c0.2-0.2,0.2-0.7,0.2-1.6c0-0.4,0-0.8-0.1-1.1c-0.1-0.3-0.1-0.6-0.1-0.9
			c0-0.4,0-0.7,0.1-1.1c0.1-0.3,0.1-0.6,0.1-0.9c0-0.5-0.1-0.9-0.2-1.1c0.2-0.4,0.2-0.7,0.2-1.1c0-0.4,0-0.7,0-1.1
			c0-0.5,0-1-0.1-1.6c0-0.5-0.1-1-0.1-1.6s0.1-1.2,0.2-1.8C337.1,248.2,337.1,247.6,337.1,247z M269,276.8c0.3-0.1,0.6-0.2,0.9-0.3
			c0.3,0,0.6,0,0.9,0s0.5,0.2,0.7,0.6c-0.5,0.1-0.9,0.3-1.1,0.6c-0.2,0.2-0.6,0.3-1.1,0.3c-0.2-0.1-0.4-0.2-0.6-0.3
			c-0.2,0-0.4-0.2-0.4-0.4C268.5,277,268.8,276.9,269,276.8z M276.1,253.2c0.9,0,1.5,0.2,1.9,0.6v0.2c0,0.1-0.1,0.1-0.2,0.1
			c0.1,0-0.2,0-0.9-0.1c-0.7-0.1-1.2-0.3-1.5-0.8H276.1z M274.1,257.8c0.1,0.1,0.1,0.4,0.1,0.7c-0.2,0.4-0.4,0.6-0.7,0.6
			c-0.3,0-0.7,0-1.1,0s-0.8,0-1.2,0.1c-0.4,0.1-0.6,0.3-0.7,0.6c-0.4-0.4-0.8-0.7-1.3-0.9c-0.4-0.2-0.8-0.6-0.9-1
			c0-0.2,0.2-0.3,0.7-0.3c0.4,0,0.7,0.1,0.9,0.2c0.2,0.2,0.8,0.2,1.6,0.2c0.4,0,0.8,0,1.2-0.1C273.3,257.8,273.7,257.8,274.1,257.8z
			 M268.1,249.9c0.2,0,0.4,0.1,0.4,0.2v0.2c-0.3,0-0.5,0.1-0.6,0.2v0.1c-0.2,0-0.4-0.1-0.5-0.3c-0.2,0-0.4,0-0.4-0.1
			C267,250,267.4,249.9,268.1,249.9z M261.3,254.6c0.3,0,0.7-0.1,1.1-0.3c0.4,0.2,0.8,0.2,1.2,0.2c0.4,0,0.9,0,1.5,0.1
			c0.6-0.1,1.1-0.2,1.5-0.5c0.3-0.3,0.8-0.5,1.3-0.6c0.3,0.2,0.8,0.2,1.5,0.2c1,0,1.6-0.2,1.9-0.6c0.3-0.4,0.6-0.6,1-0.6
			c0.2,0,0.4,0,0.5,0.1c-0.4,0.4-0.7,0.7-0.9,1.1c-0.2,0.4-0.4,0.7-0.7,1.1c-0.7,0.1-1.4,0.3-2.2,0.3c-0.8,0.1-1.3,0.5-1.5,1.2
			c-0.1,0.1-0.2,0.1-0.5,0.1c-0.4,0-0.8-0.1-1.2-0.2c-0.4-0.1-0.8-0.2-1.2-0.2s-0.8,0-1.1,0.1c-0.3,0.1-0.7,0.1-1,0.1
			c-0.2,0-0.6-0.1-1-0.4c-0.4-0.3-0.8-0.6-0.9-0.9C260.7,254.8,261,254.7,261.3,254.6z M259.8,258.8c0.3-0.1,0.6-0.2,0.7-0.2
			c0.2,0,0.4,0.1,0.7,0.2c0.3,0.1,0.6,0.2,0.9,0.2c0.6,0,1.2-0.1,1.8-0.3c0.5-0.2,1.1-0.3,1.8-0.3c0.2,0,0.3,0,0.4,0.1
			c0.1,0,0.2,0.1,0.4,0.1c0,0.1,0,0.1-0.1,0.2c0,0-0.1,0.1-0.1,0.2l0.1,0.1h0.1c0.1,0,0.1,0,0.1,0.1c0,0.5-0.5,0.9-1.6,1.1
			s-1.9,0.3-2.5,0.3s-1.1,0-1.7-0.1s-1.1-0.2-1.5-0.3v-0.1v-0.6C259.3,259.1,259.5,258.9,259.8,258.8z M257.9,249.1h0.1
			c0.2,0,0.3,0,0.3-0.1c0,0,0.1-0.1,0.3-0.1c-0.2,0-0.1,0,0.2,0.1c0.3,0,0.5,0.1,0.6,0.3c-0.3,0.3-0.7,0.4-1,0.4c0.1,0,0,0-0.2,0
			s-0.4-0.2-0.4-0.6v0H257.9z M257.4,255.1c0.2-0.1,0.4-0.2,0.6-0.3s0.4-0.2,0.6-0.2s0.4,0.1,0.6,0.2v0.1v0.3c0,0.1-0.1,0.1-0.2,0.1
			h-0.1c-0.2,0-0.4,0.1-0.5,0.3s-0.2,0.3-0.5,0.3c-0.4,0-0.6-0.1-0.5-0.4C257.5,255.5,257.5,255.3,257.4,255.1z M260.7,297.6v0.4
			c0,0.2,0,0.2-0.1,0.2l-0.1-0.1c-0.3,0-0.6,0.1-0.9,0.2s-0.5,0.2-0.8,0.2c-0.2,0-0.3,0-0.5-0.1s-0.2-0.2-0.2-0.3
			c0-0.2,0.2-0.4,0.7-0.6c0.5-0.1,0.9-0.2,1.2-0.2C260.2,297.3,260.4,297.4,260.7,297.6L260.7,297.6L260.7,297.6z M261.4,269.4
			c-0.1,0-0.1,0-0.2-0.1c0,0-0.1-0.1-0.2-0.1l-0.1,0.1v0.1h-0.1c0.2,0,0.1,0-0.1-0.1c-0.2,0-0.5-0.1-0.9-0.2s-0.8-0.2-1.2-0.3
			c-0.4-0.1-0.8-0.3-1.2-0.6c0.3-0.5,1-0.8,2-0.8c0.2,0,0.3,0,0.5,0.1c0.2,0,0.3,0.1,0.5,0.1h0.1c0.3,0,0.6,0.1,0.8,0.3
			c0.2,0.2,0.4,0.4,0.6,0.5C261.8,268.8,261.7,269.1,261.4,269.4z M264,272c0,0.2-0.3,0.3-0.7,0.3c-0.2,0-0.4-0.1-0.6-0.2
			s-0.4-0.3-0.4-0.4s0.1-0.3,0.3-0.4c0.2-0.1,0.4-0.2,0.5-0.2c0.2,0,0.4,0,0.5,0.1s0.2,0.2,0.4,0.3C264.1,271.6,264.1,271.8,264,272
			z M267.8,269.8c0,0.4-0.3,0.6-0.9,0.8c-0.2-0.1-0.3-0.2-0.5-0.2s-0.3-0.1-0.3-0.2c0-0.5,0.2-0.8,0.7-0.8c0.3,0,0.6,0.1,1,0.2
			L267.8,269.8L267.8,269.8z M271.1,267.1c-0.4,0.3-0.8,0.4-1.2,0.4c-0.4,0-0.9-0.1-1.3-0.3c-0.5-0.2-1.1-0.3-1.8-0.3
			c-0.1,0.1-0.2,0.1-0.5,0.1h-0.7h-0.1c0,0.1-0.2,0-0.6-0.6c-0.4-0.5-0.7-0.9-0.9-1c-0.4,0-0.7-0.2-0.9-0.6c0-0.3,0.2-0.4,0.6-0.4
			h0.7h0.2c0.2,0.3,0.6,0.4,1,0.4s0.8,0.1,1.2,0.2c0.2-0.1,0.4-0.1,0.9-0.2c0.4-0.1,0.6-0.3,0.6-0.7c0-0.3-0.2-0.5-0.5-0.7
			c-0.3-0.1-0.7-0.2-1.1-0.3c-0.4,0-0.8-0.1-1.1-0.2c-0.3-0.1-0.5-0.3-0.5-0.6c0-0.1,0.3-0.4,0.9-0.7c0.6-0.3,1.2-0.6,1.8-0.8
			c0.6-0.3,1.2-0.5,1.8-0.7c0.5-0.2,0.7-0.3,0.7-0.3c0.4,0,0.8,0.2,1.2,0.6v0.2c0,0.3-0.1,0.5-0.4,0.6c-0.2,0.1-0.5,0.2-0.7,0.3
			c-0.2,0.1-0.5,0.3-0.7,0.4c-0.2,0.2-0.4,0.5-0.4,1.1c0.1,0.3,0.3,0.5,0.6,0.6c0.3,0.1,0.6,0.2,1,0.2c0.3,0,0.6,0.1,0.9,0.2
			c0.2,0.1,0.4,0.4,0.4,0.7c0,0.1,0,0.1-0.1,0.2c0,0.1-0.1,0.2-0.1,0.3c0.2,0.1,0.2,0.4,0.2,0.9
			C271.9,266.6,271.5,266.8,271.1,267.1z M277.4,268c-0.6,0-1.1,0-1.5,0c-0.2,0-0.6-0.1-1-0.2s-0.7-0.3-0.7-0.5c0-0.1,0-0.1,0.1-0.2
			c0,0,0.1-0.1,0.1-0.2c0.6,0.1,1.1,0.2,1.6,0.3c0.5,0.1,1.1,0.2,1.8,0.2h0.5C278.2,267.8,278,268,277.4,268z M277.9,264.6
			c-0.2,0.1-0.6,0.1-1,0.1c-0.3,0-0.7,0-1.2,0s-1,0-1.5-0.1c-0.5,0-0.9-0.1-1.3-0.2s-0.5-0.3-0.5-0.5c0-0.5,0.3-0.8,0.8-0.9
			s1-0.2,1.4-0.2c0.6,0,1.3,0.1,2,0.4c0.6,0.3,1.3,0.4,1.9,0.4c0.1,0.2,0.1,0.4,0.1,0.7C278.4,264.4,278.1,264.5,277.9,264.6z
			 M281.4,259.5c0,0.2-0.1,0.3-0.4,0.3s-0.5,0-0.7,0c-0.9,0-1.5-0.2-1.8-0.6c0.2-0.6,0.2-0.9,0.2-1s0.2-0.1,0.7-0.1s0.9,0.1,1.2,0.3
			c0.3,0.2,0.6,0.5,0.7,0.8L281.4,259.5L281.4,259.5z M325.8,271.5c0.5,0,0.7,0.1,0.7,0.3c-0.2,0.2-0.3,0.2-0.4,0.2
			c-0.6,0-0.9-0.1-0.9-0.3C325.3,271.6,325.5,271.5,325.8,271.5z M324.2,249.3v0.1c-0.1,0-0.1,0-0.1,0.1c-0.1,0-0.1-0.1-0.1-0.4
			C324.1,249.1,324.2,249.2,324.2,249.3z M324.7,253.6c0.2,0,0.3,0,0.4,0.1c0.1,0,0.2,0.1,0.2,0.1c-0.2,0.1-0.3,0.2-0.5,0.3
			s-0.3,0.2-0.5,0.2c-0.1,0-0.2-0.1-0.4-0.2C324.1,253.7,324.3,253.6,324.7,253.6z M321.4,258.8c0.2-0.1,0.4-0.3,0.6-0.4
			c0.2,0.1,0.4,0.1,0.7,0.1c0.3,0,0.5,0.1,0.5,0.3c-0.2,0.2-0.4,0.4-0.5,0.6c-0.1,0.3-0.5,0.4-1.2,0.4c-0.3,0-0.5-0.1-0.5-0.3
			S321.2,258.9,321.4,258.8z M320.4,278.2c0.5,0,0.9,0.1,1.1,0.3c0,0.3-0.2,0.4-0.6,0.4h-0.5h-0.2c-0.1-0.1-0.1-0.3-0.1-0.4
			C320.1,278.3,320.2,278.2,320.4,278.2z M316.5,279.6c0.2-0.1,0.4-0.2,0.9-0.2c0.2,0,0.4,0.1,0.4,0.3c0,0.1,0,0.3-0.1,0.3
			c-0.2,0.1-0.3,0.2-0.4,0.3c-0.1,0.1-0.2,0.2-0.4,0.2c-0.3,0-0.4-0.1-0.4-0.3C316.6,279.9,316.6,279.7,316.5,279.6z M316.8,285.4
			h0.1h0.7c0.2,0,0.4,0.1,0.4,0.3v0.2c0,0.2-0.1,0.4-0.2,0.7c-0.1,0.2-0.2,0.4-0.3,0.6c-0.4,0-0.8,0-1.2-0.1c-0.4,0-0.5-0.2-0.5-0.6
			c0-0.3,0.1-0.5,0.4-0.6C316.4,285.8,316.6,285.6,316.8,285.4z M313.6,283v-0.2c0.2-0.2,0.6-0.3,1.1-0.3c0.7,0,1.2,0.2,1.3,0.7v0.1
			v0.7c0,0.2-0.2,0.3-0.7,0.3c-0.4,0-0.8-0.1-1.2-0.2c-0.4-0.1-0.6-0.3-0.6-0.4V283H313.6z M311.3,284.9c0.5,0,0.9,0.2,1.1,0.6v0.2
			c0,0.4-0.2,0.7-0.6,0.7c-0.3,0-0.6-0.1-0.7-0.4c-0.2-0.3-0.2-0.5-0.2-0.6C310.8,285.1,311,284.9,311.3,284.9z M306.8,284.7
			c0.2-0.1,0.5-0.2,0.7-0.2s0.4,0.1,0.6,0.3c0,0.4-0.1,0.6-0.4,0.6c-0.2,0-0.5,0.1-0.7,0.3c-0.2-0.1-0.3-0.3-0.4-0.3
			c-0.1-0.1-0.2-0.2-0.2-0.3C306.4,284.9,306.5,284.8,306.8,284.7z M304.3,288.4c0,0.1-0.1,0.2-0.2,0.2c-0.2,0-0.3-0.1-0.3-0.2
			s-0.1-0.2-0.3-0.2h-0.1c0-0.2,0.1-0.3,0.4-0.3c0.2,0,0.4,0.1,0.6,0.3C304.3,288.3,304.3,288.3,304.3,288.4z M307.4,294.6
			c0,0.2-0.1,0.4-0.4,0.4h-0.2c-0.2,0-0.3,0-0.5,0.1c-0.2,0-0.3,0.1-0.5,0.1c-0.4,0-0.6-0.2-0.6-0.6c0.1-0.3,0.4-0.4,1-0.4
			c0.5,0,0.9,0.1,1.2,0.2V294.6z M309.1,292.1c0-0.1-0.2-0.2-0.5-0.3c-0.3-0.1-0.7-0.2-1.1-0.3c-0.4-0.1-0.8-0.2-1.1-0.3
			c-0.3-0.1-0.5-0.2-0.5-0.4c0-0.2,0.2-0.3,0.5-0.3c0.4,0,0.7,0.1,0.9,0.2c0.2,0.2,0.5,0.2,0.8,0.2c0.5,0,0.8,0.1,1,0.2
			s0.4,0.3,0.9,0.4C309.7,291.9,309.4,292.1,309.1,292.1z M311.4,300.5c-0.1,0-0.2,0.1-0.4,0.1c-0.2,0-0.2-0.1-0.2-0.3
			c0.2,0,0.3,0,0.5,0s0.3,0.1,0.4,0.2C311.6,300.4,311.5,300.4,311.4,300.5z M312.9,296.1c-0.2,0.4-0.4,0.6-0.7,0.7
			c-0.3,0.1-0.6,0.2-0.7,0.2c-0.7,0-1-0.2-1-0.6c0-0.2,0.1-0.3,0.3-0.3c0.2,0,0.3-0.1,0.4-0.2h0.1c0.2,0,0.5-0.1,0.8-0.3
			c0.3-0.2,0.5-0.3,0.7-0.3c0.1,0,0.1,0.1,0.1,0.3L312.9,296.1L312.9,296.1z M315.8,302.9h-0.4c-0.1,0-0.1,0-0.2,0.1
			c0,0-0.1,0.1-0.2,0.1c-0.4,0-0.7-0.1-0.9-0.4c0.3-0.1,0.6-0.2,0.9-0.2c0.5,0,0.8,0.1,1,0.3C316,302.8,316,302.9,315.8,302.9z
			 M318.1,306.9h-0.5h-0.2c-0.1-0.1-0.2-0.2-0.3-0.3c-0.1,0-0.2-0.1-0.2-0.3c0-0.2,0.2-0.3,0.5-0.3c0.5,0,0.9,0.2,1.3,0.6
			C318.7,306.7,318.4,306.9,318.1,306.9z M318.1,300c-0.3,0-0.6,0-0.7-0.1c0-0.1-0.2-0.1-0.6-0.2c-0.4,0-0.9-0.1-1.3-0.1
			c-0.5,0-0.9-0.1-1.3-0.2s-0.6-0.3-0.6-0.6c0-0.2,0.3-0.4,0.9-0.6c0.6-0.1,1-0.2,1.3-0.2c0.6,0,1.1,0.1,1.5,0.4
			c0.2,0.1,0.4,0.1,0.7,0.1h0.9c0.6,0,1,0.1,1.1,0.4C319.4,299.6,318.9,300,318.1,300z M315.8,296.2c0-0.1,0.1-0.3,0.4-0.3
			c0.3-0.1,0.5-0.1,0.7-0.1c0.3,0,0.6,0.1,0.7,0.3c-0.2,0.1-0.3,0.3-0.4,0.6s-0.3,0.3-0.6,0.3l-0.5-0.2
			C315.9,296.7,315.8,296.5,315.8,296.2z M320.2,294.5c-0.2,0-0.3,0-0.5,0s-0.2-0.1-0.2-0.3c0.1,0.1,0.2,0.1,0.4,0.1
			C320.1,294.3,320.2,294.3,320.2,294.5L320.2,294.5L320.2,294.5z M322.4,307.2c0,0.1-0.2,0.2-0.5,0.2h-0.6h-0.2
			c-0.2-0.1-0.3-0.2-0.4-0.3c-0.1,0-0.1-0.1-0.1-0.3v-0.1h0.4h0.6c0.4,0,0.7,0.1,0.9,0.3L322.4,307.2L322.4,307.2z M320.7,296.5
			c0-0.6,0.2-0.9,0.5-0.9c0.2,0,0.3,0.1,0.4,0.2s0.2,0.2,0.3,0.3c0,0.2-0.1,0.4-0.2,0.6c-0.2,0.1-0.3,0.3-0.5,0.3
			C320.8,297,320.7,296.8,320.7,296.5z M322.1,291.5c-0.7,0-1.3-0.1-1.8-0.3c-0.1,0.2-0.2,0.3-0.4,0.2c-0.2-0.1-0.3,0-0.5,0.1
			c0-0.1-0.2-0.3-0.7-0.3c-0.5-0.1-1-0.1-1.5-0.1c-0.6,0-0.9,0.2-0.9,0.6s0.2,0.8,0.5,0.9c0.4,0.2,0.6,0.5,0.7,0.8
			c-0.7,0.1-1.4,0.2-2.2,0.2c-0.8,0-1.5,0.1-2.2,0.4c-0.4,0-0.6-0.1-0.7-0.3c0-0.2-0.1-0.4-0.3-0.7c0.1-0.3,0.3-0.5,0.5-0.6
			c0.3-0.1,0.6-0.2,0.9-0.3c0.3-0.1,0.6-0.2,0.8-0.4c0.2-0.2,0.3-0.5,0.3-0.8c0-0.1-0.2-0.4-0.5-0.7c-0.3-0.3-0.7-0.7-1.2-1
			c-0.4-0.3-0.9-0.6-1.5-0.8c-0.5-0.2-1-0.3-1.3-0.3c-0.2,0-0.7,0.1-1.3,0.2v-0.1h0.2c-0.2,0-0.2-0.1-0.2-0.2c0-0.4,0.4-0.7,1.2-0.7
			c0.2,0,0.5,0,0.7,0.1c0.2,0,0.4,0.1,0.6,0.1c0.5,0.4,1.2,0.7,2.1,0.7s1.6,0.3,2,0.9c0.8,0.3,1.4,0.4,1.8,0.4c0.2,0,0.5-0.1,1-0.2
			s0.7-0.4,0.7-0.7c0-0.1,0-0.1-0.1-0.2c0,0-0.1-0.1-0.1-0.2c0.3-0.6,0.6-0.9,0.9-1c0.2-0.1,0.6-0.1,1.2-0.1c0.2,0,0.5,0.1,0.9,0.2
			v0.1c0,0.1,0,0.1,0.1,0.1c0,0,0.1,0,0.1,0.1v0.3c0,0.3-0.1,0.5-0.4,0.6s-0.6,0.1-0.9,0.2c-0.3,0-0.6,0.1-0.9,0.2s-0.4,0.3-0.4,0.6
			c0,0.4,0.2,0.7,0.6,1s0.9,0.4,1.3,0.4c0.6,0,1.1-0.1,1.5-0.2s0.8-0.2,1.2-0.2c0.2,0,0.3,0,0.5-0.1c0.2,0,0.2,0,0.2,0.2
			c0,0.1,0,0.1-0.1,0.1h-0.4c-0.2,0-0.4,0.1-0.7,0.3S322.7,291.5,322.1,291.5z M326.8,302.4c-0.2,0-0.3,0-0.4,0.1s-0.2,0.1-0.4,0.1
			c-0.2,0-0.3,0-0.4-0.1s-0.2-0.1-0.4-0.2c0-0.3,0.3-0.4,1-0.4c0.3,0,0.5,0.1,0.5,0.3L326.8,302.4L326.8,302.4z M327,295
			c-0.2,0-0.4,0-0.8,0.1c-0.4,0-0.8,0.1-1.2,0.1c-0.2,0-0.5,0-0.8,0s-0.4-0.1-0.4-0.4c0-0.1,0.1-0.2,0.4-0.4c0.1,0,0.2,0,0.2,0.1
			c0.1,0,0.2,0.1,0.2,0.1l0.1-0.1c0.1,0,0.1,0,0.2-0.1c0,0,0.1-0.1,0.3-0.1c0.2,0,0.4,0,0.6,0.1s0.4,0.1,0.6,0.1
			c0.1,0,0.1,0,0.2-0.1c0,0,0.1-0.1,0.3-0.1c0,0.2,0.1,0.3,0.3,0.3c0.2,0,0.3,0.1,0.3,0.4H327z"/>
	</g>
	<path class="st0" d="M296,116.6c-1.2-1.8-2.8-3.3-4.7-4.4c-2.4-1.4-5.3-1.8-8.8-1.4l-5.5,0.6l-1.9,0.7c-4.3,1.8-7.3,5-8.4,9.2
		c-0.4,1.6-0.7,3-0.8,4.2c-3,9.1-5.7,17.5-8,25c-1.3,4.1-2.4,7.8-3.4,11.2c-1.4-0.2-2.9-0.1-4.3,0c-9.9,1.1-18.9,8.9-27.2,23.8
		c-0.1,0.2-0.2,0.3-0.3,0.5c0.3-2.5,0.1-7.2-4.6-11.5c-2.8-2.5-6.5-3.7-12.3-3.8l0.2-3.1l-1.4,3.1c-1,0-2.1,0-3.2,0.1H201
		c-1.8,0.2-3.5,0.8-5.1,1.7c-3.7,2.1-6.4,5.6-8.2,10.8c-2.7-1.6-6-2.2-10-1.8c-8.2,0.9-12.5,5-14.6,8.5c-0.7,1-1.3,2.1-1.8,3.6
		c-0.4,1.2-1,2.9-1.6,5.4l-0.2,0.9c-0.1,0.9-0.1,1.9,0,2.8c-0.5,0.8-1,1.8-1.5,2.8c-0.4-0.7-1-1.4-1.7-2.1c-0.3-0.2-0.5-0.4-0.8-0.6
		c1.2-2.7,1.7-6,1.4-10.2c-0.1-3.1-1.3-6.1-3.3-8.7c-1.6-2-3.6-3.7-5.9-5c-2.1-1.2-4.4-2-6.9-2.6c-2.5-0.5-5-0.7-7.3-0.4
		c-3.8,0.4-7.3,2.1-10.1,4.8c-1.9,1.8-3.5,3.5-4.9,5.2l-0.1,0.2c-1,1.3-2,2.9-3.2,4.8c-1.1,1.7-2.2,3.7-3.4,5.7
		c-1.2,2.1-2.4,4.2-3.4,6.3c-1.1,2.1-2,4-2.8,5.7l-0.1,0.3c-1.3,3.1-2.4,6.1-3.4,8.8c-1,3-1.8,5.5-2.3,7.7l-0.1,0.3
		c-1,5.6-4.2,22.8,6.3,30.6l0.6,0.4c3.2,2,6.7,2.9,10.6,2.9c0.9,0,1.8-0.1,2.7-0.2c6-0.7,11.4-3.4,16.1-8.1
		c2.8,1.4,6.7,2.3,11.7,1.8c4-0.5,7.6-2.1,10.6-4.8c0.9-0.8,1.8-1.6,2.6-2.5c1.2,1.2,2.5,2.3,4.1,3c2,1,4.1,1.5,6.2,1.7
		c0.5,0,1,0.1,1.5,0.1l5-0.6l5-1.9c0.3-0.2,0.5-0.3,0.8-0.5c1.9-1.3,3.6-2.8,5-4.5c0.6-0.7,1.1-1.4,1.5-2.1c0.8,1.2,1.8,2.2,2.9,3.1
		c2.5,2.1,7,4.4,13.8,3.6c3.9-0.4,7.7-2.3,11.4-5.7c2.3,1.8,4.6,2.7,6.3,3.1c2.2,0.5,4.2,0.8,6.2,0.8c0.8,0,1.5,0,2.2-0.1
		c5.5-0.6,10.5-3.2,14.9-7.7c0.2-0.1,0.3-0.3,0.5-0.5c3.5,2.6,8.1,3.7,13.4,3.2c2-0.2,4-0.9,6.1-2c2-1.1,4.1-2.7,6.4-5.1
		c2-2.1,4-4.9,6.4-8.2c0.4-0.5,0.6-0.8,0.9-1.1c0.5-0.7,1-1.3,2-2.8l0.4-0.6c2.9-5.3,9.8-18.3,11.7-23.7c0.9-2.6,1.8-5.7,0.8-9
		c-1.1-4.4-5-7-9.5-6.5l0,0c-2.4,0.3-4.5,1-6.3,2.2c-1.5,1-2.8,2.2-3.9,3.6c-0.1,0.2-0.3,0.4-0.4,0.6c2.6-8.4,4.7-14.9,6.2-19.6
		c1.5-4.6,2.3-7.4,2.7-8.5c2.3-5.7,4.4-11,6.3-15.9c1.7-4.3,3.4-8.5,5-12.6l0.7-0.5l0.7-2.7C298.7,123.7,298.2,119.7,296,116.6z
		 M288.4,198.4l-0.6-5.1l0,0L288.4,198.4L288.4,198.4z M287.4,190.2L287.4,190.2L287.4,190.2L287.4,190.2z"/>
	<path class="st2" d="M289.1,121.4c-0.5-0.8-1.2-1.5-2-1.9s-2-0.6-3.8-0.4l-4.6,0.5l-0.6,0.2c-2,0.8-3.1,2-3.6,3.6
		c-0.4,1.6-0.6,2.8-0.6,3.6c-3.1,9.5-5.9,18.1-8.3,25.9s-4.4,14.2-5.9,19.4c-0.3-0.1-0.4-0.1-0.5-0.2c-0.1-0.1-0.2-0.2-0.5-0.2
		c-2.6-1.6-5.3-2.2-7.9-1.9c-7.1,0.8-14.1,7.4-21,19.8c-0.4,0.6-0.7,1.2-1,1.9l0,0c-2.2,4.1-4,7.9-5.4,11.4
		c-1.6,3.3-3.3,6.6-5.2,10.1c-2,3.5-3.7,6.2-5.2,8.4c-1.5,2.1-2.7,3.8-3.7,5s-1.7,2-2.2,2.4s-0.9,0.7-1,0.8c-0.1,0-0.3-0.1-0.6-0.4
		c-0.3-0.3-0.5-1-0.8-2c-0.2-1-0.4-2.5-0.3-4.4c0-2,0.3-4.6,0.8-7.9c0.4-2.6,1-5.4,1.9-8.5s1.9-6.5,3.1-10.1c1.5-4.2,2.5-7,3-8.4
		s0.8-2.2,1-2.5l0.1-0.4c0.2-1.5-0.4-2.9-1.9-4.3c-1.5-1.3-5-1.9-10.5-1.5c-0.7,0.1-1.3,0.3-1.9,0.7c-2.6,1.4-4.4,4.7-5.6,10
		c-1.8,7.1-5.4,15.5-10.8,25.2c-0.9,1.4-1.8,3.1-2.7,5.2c-1,2.1-2.2,4.6-3.7,7.6v0.1c-0.2-1.2-0.1-3.6,0.5-7
		c0.1-0.6,0.3-1.5,0.5-2.9c0.3-1.3,0.5-3,0.8-4.9c0.4-2,0.8-3.8,1-5.4c0.2-1.6,0.4-2.9,0.6-4c0.1-0.8,0.4-1.6,0.8-2.4
		c0.4-0.8,0.8-1.8,1.4-2.8c0.9-1.9,1.5-3,1.7-3.5s0.3-0.8,0.3-1c0.2-1.5-0.2-2.6-1.3-3.4c-1.1-0.8-2.7-1-5-0.8
		c-4.1,0.5-7,2.1-8.5,4.8c-0.3,0.4-0.6,1.1-1,1.9c-0.3,0.9-0.8,2.4-1.4,4.6c0,0.3,0,0.6,0.2,1l0.7,1.4l-1.8,3
		c-1.1,1.9-2.5,4.6-4.2,8.1c-1.8,3.5-4.3,7.4-7.5,11.8c-1.6,2.1-3,3.9-4,5.2c-1.1,1.3-1.9,2.4-2.5,3.1c-0.6,0.7-1.1,1.2-1.4,1.5
		c-0.3,0.3-0.5,0.4-0.7,0.4c-0.1-0.1-0.3-0.3-0.6-0.6s-0.6-1-1-2c-0.7-2.6-0.7-5.2,0-7.9c0.5-1.5,1-3.1,1.4-4.7
		c0.4-1.6,0.9-3.1,1.4-4.6c0.4-1,0.9-2.1,1.3-3.1c0.5-1,1-2,1.5-3c0.3-0.4,0.3-0.8,0.1-1c-0.3-0.3-0.6-0.5-1-0.6
		c-0.5-0.1-1-0.2-1.5-0.3c-0.4-0.2-0.7-0.3-1-0.4c-0.3-0.1-0.7-0.2-1.2-0.2s-1-0.2-1.3-0.4c-0.4-0.2-0.8-0.3-1.3-0.2
		c-0.3,0-0.6,0-1,0s-0.7,0-1,0s-0.6,0.1-1.1,0.1c-0.5,0.1-0.9,0.3-1.4,0.7s-0.6,0.8-0.5,1.1c0.2,0.3,0.1,0.8-0.1,1.6
		c-0.3,0.8-0.5,1.6-0.7,2.3s-0.5,1.5-0.9,2.3c-1.1,2.7-2,5.3-2.7,7.8c-0.8,2.5-2.1,5.3-4,8.4c-1.9,3.4-3.6,5.9-5.1,7.8
		c-1.4,1.8-2.4,2.8-3,2.8c-0.3,0-0.7,0-1.3-0.2c-0.6-0.2-1-0.4-1.2-0.8c-0.7-1.3-1-2.7-0.7-4.3c0.8-5.1,1.9-10.1,3.4-14.9
		c1.7-4.1,3.7-8.6,6.1-13.3c2.4-4.8,4.2-8.2,5.4-10.2s2.1-3.3,2.5-3.8c1.7,0,2.9,0.8,3.5,2.5c0.7,1.6,1,3.6,1.1,6
		c0,0.7,0.3,1.1,0.7,1.2c0.4,0.1,1,0,1.6-0.2s1.2-0.5,1.7-0.9s0.9-0.6,1.2-0.9c0.6-0.7,1.3-1.7,2-3c0.7-1.4,1-3.6,0.8-6.7
		c-0.1-1.4-0.6-2.6-1.5-3.8s-2.1-2.1-3.5-2.9c-1.4-0.8-2.9-1.3-4.5-1.7s-3.2-0.4-4.7-0.3c-2,0.2-3.8,1.1-5.4,2.6
		c-1.6,1.5-3,3-4.1,4.4c-0.8,1.1-1.7,2.5-2.8,4.1c-1,1.7-2.1,3.5-3.3,5.5c-1.1,2-2.2,4-3.2,6s-1.9,3.8-2.7,5.4
		c-1.2,3-2.3,5.8-3.2,8.4c-0.9,2.6-1.6,4.9-2,6.8c-2.2,11.8-1.1,19.3,3.1,22.4c2.3,1.4,4.9,1.9,8,1.6c6.2-0.7,11.6-4.8,16.1-12.4
		c0.4,0.7,0.8,1.4,1.2,1.8c0.4,0.5,0.7,1,1.1,1.4c2,2.3,5.1,3.2,9.4,2.8c2.3-0.3,4.3-1.2,6-2.7c1.7-1.6,3.2-3.1,4.5-4.6
		c1.6-1.9,3.5-4.4,5.6-7.2c0.9-1.3,1.9-2.7,2.8-4.1c-0.1,0.9-0.1,1.7-0.2,2.6c-0.2,2-0.3,4-0.5,6v0.1c0.1,1.8,0.5,3.3,1.2,4.3
		s1.5,1.7,2.5,2.2s2,0.8,3.1,0.8c1.1,0.1,2,0.1,2.8,0c1.6-0.2,3-0.7,4.2-1.5s2.2-1.7,3.1-2.8c0.8-1,1.5-2,2-3s1-1.7,1.3-2.3
		c1.9-3.8,3.6-7.3,5.1-10.5s2.9-6,4-8.6c-0.3,3.5-0.4,6.4-0.4,8.7c0,2.4,0.1,4.2,0.2,5.6c0.7,8.5,4.5,12.4,11.6,11.6
		c3.3-0.4,6.9-3,10.8-8c0.8-1,1.6-2.1,2.4-3.2c0.4,1.8,1.1,3.4,2.1,4.8c1.5,2.2,3.3,3.5,5.4,4c2.1,0.5,3.9,0.7,5.5,0.5
		c3.6-0.4,6.9-2.2,10-5.4c1.8-1.7,4.2-4.6,7.2-8.8c1.2,6.8,5.1,9.9,11.6,9.1c0.9-0.1,2-0.5,3.2-1.1s2.6-1.8,4.2-3.5s3.4-4.2,5.7-7.3
		c1.2-1.6,1.3-1.6,2.7-3.7c5.3-9.8,9.9-18.9,11.1-22.5c0.7-2.1,0.9-3.2,0.7-3.9c-0.2-0.5-0.1-0.7-0.6-0.7c-1.1,0.1-2,0.4-2.7,0.9
		s-1.3,1-1.8,1.7c-0.5,0.6-0.9,1.3-1.3,1.9c-0.4,0.6-1,1.4-1.2,1.8c-1.9,2.6-0.7,1-3.4,4.5c-3.1,4.1-2.6,3.5-5.4,7.6
		c-3.7,5.3-6.3,9.1-7.8,11.3c-1.6,2.2-2.7,3.6-3.5,4.1c-0.2-0.4-0.4-1.2-0.7-2.5c-0.3-1.3-0.2-3.5,0.1-6.7c0.6-4,3.1-12.9,7.5-26.9
		c3-9.5,5.3-16.7,6.9-21.7s2.5-8,2.8-8.8c2.3-5.8,4.4-11.3,6.4-16.2c2-5,3.9-9.9,5.8-14.7l0.2-0.2C290,124,289.9,122.4,289.1,121.4z
		 M255,185.9c-0.1,0.8-0.3,1.6-0.5,2.3s-0.6,1.9-1.1,3.7v0.1c-0.6,2-1,3.7-1.3,5.2c-0.3,1.4-0.6,2.6-0.9,3.5
		c-2.4,5.6-5.3,11.2-8.9,16.9h-0.2c-2.8,4.6-4.8,7.7-6,9.4c-1.3,1.6-2.3,2.3-3.2,2c-0.2-0.2-0.4-0.5-0.6-0.9
		c-0.2-0.4-0.3-1.1-0.4-2.1c0-1,0-2.3,0.1-3.9c0.1-1.6,0.4-3.7,0.7-6.2c1-6.8,4-14.4,8.8-22.9c1.8-3.1,3.3-5.5,4.6-7.1
		s2.5-2.7,3.4-3.4s1.6-1.1,2.1-1.1c0.5-0.1,0.8-0.1,0.9-0.1c0.5-0.1,1.2,0.1,2,0.4C255.2,182,255.4,183.4,255,185.9z"/>
</g>
</svg>
